<mxfile host="app.diagrams.net" modified="2023-12-23T00:45:31.474Z" agent="Mozilla/5.0 (Macintosh; Intel Mac OS X 10_15_7) AppleWebKit/537.36 (KHTML, like Gecko) Chrome/120.0.0.0 Safari/537.36" etag="H-5ESRWSvYsY-iS5PFs0" version="22.1.11" type="google">
  <diagram name="Page-1" id="UpQfXl-DkcGahVSdvex6">
    <mxGraphModel grid="1" page="1" gridSize="10" guides="1" tooltips="1" connect="1" arrows="1" fold="1" pageScale="1" pageWidth="3300" pageHeight="2339" background="#ffffff" math="0" shadow="0">
      <root>
        <mxCell id="0" />
        <mxCell id="1" parent="0" />
        <mxCell id="PrwHGtlNAWb-pKhYX6BM-1" value="MySQL" style="shape=cylinder3;whiteSpace=wrap;html=1;boundedLbl=1;backgroundOutline=1;size=15;strokeColor=#FFFF33;fontColor=#ffffff;fillColor=#d80073;" vertex="1" parent="1">
          <mxGeometry x="1597" y="822" width="100" height="150" as="geometry" />
        </mxCell>
        <mxCell id="llS7omPs3QPFBOIF4OHb-1" value="&lt;font style=&quot;font-size: 20px;&quot;&gt;Controllers&lt;/font&gt;" style="rounded=1;whiteSpace=wrap;html=1;fillColor=#008a00;fontColor=#ffffff;strokeColor=#005700;" vertex="1" parent="1">
          <mxGeometry x="1537" y="472.5" width="190" height="65" as="geometry" />
        </mxCell>
        <mxCell id="llS7omPs3QPFBOIF4OHb-2" value="" style="endArrow=classic;html=1;rounded=0;fillColor=#60a917;strokeColor=#2D7600;strokeWidth=2;" edge="1" parent="1">
          <mxGeometry width="50" height="50" relative="1" as="geometry">
            <mxPoint x="600" y="429.5" as="sourcePoint" />
            <mxPoint x="750" y="429.5" as="targetPoint" />
          </mxGeometry>
        </mxCell>
        <mxCell id="llS7omPs3QPFBOIF4OHb-3" value="" style="endArrow=classic;html=1;rounded=0;fillColor=#1ba1e2;strokeColor=#006EAF;strokeWidth=2;" edge="1" parent="1">
          <mxGeometry width="50" height="50" relative="1" as="geometry">
            <mxPoint x="599" y="490" as="sourcePoint" />
            <mxPoint x="749" y="490.5" as="targetPoint" />
          </mxGeometry>
        </mxCell>
        <mxCell id="llS7omPs3QPFBOIF4OHb-6" value="&lt;font color=&quot;#00331a&quot;&gt;@GetMapping(&quot;/products&quot;)&lt;/font&gt;" style="rounded=1;whiteSpace=wrap;html=1;fillColor=none;fontColor=#ffffff;strokeColor=none;" vertex="1" parent="1">
          <mxGeometry x="589" y="398" width="160" height="30" as="geometry" />
        </mxCell>
        <mxCell id="llS7omPs3QPFBOIF4OHb-8" value="&lt;font color=&quot;#00331a&quot;&gt;@PostMapping(&quot;/products&quot;)&lt;/font&gt;" style="rounded=1;whiteSpace=wrap;html=1;fillColor=none;fontColor=#ffffff;strokeColor=none;" vertex="1" parent="1">
          <mxGeometry x="588" y="460" width="160" height="30" as="geometry" />
        </mxCell>
        <mxCell id="llS7omPs3QPFBOIF4OHb-9" value="&lt;font color=&quot;#00331a&quot;&gt;@PutMapping(&quot;/products/{id}&quot;)&lt;/font&gt;" style="rounded=1;whiteSpace=wrap;html=1;fillColor=none;fontColor=#ffffff;strokeColor=none;" vertex="1" parent="1">
          <mxGeometry x="580" y="518.4" width="160" height="30" as="geometry" />
        </mxCell>
        <mxCell id="llS7omPs3QPFBOIF4OHb-11" value="" style="endArrow=classic;html=1;rounded=0;fillColor=#e51400;strokeColor=#B20000;strokeWidth=2;" edge="1" parent="1">
          <mxGeometry width="50" height="50" relative="1" as="geometry">
            <mxPoint x="598" y="600" as="sourcePoint" />
            <mxPoint x="748" y="600" as="targetPoint" />
          </mxGeometry>
        </mxCell>
        <mxCell id="llS7omPs3QPFBOIF4OHb-12" value="" style="endArrow=classic;html=1;rounded=0;fillColor=#60a917;strokeColor=#2D7600;strokeWidth=2;" edge="1" parent="1">
          <mxGeometry width="50" height="50" relative="1" as="geometry">
            <mxPoint x="598" y="550" as="sourcePoint" />
            <mxPoint x="748" y="550" as="targetPoint" />
          </mxGeometry>
        </mxCell>
        <mxCell id="llS7omPs3QPFBOIF4OHb-14" value="&lt;font color=&quot;#00331a&quot;&gt;@DeleteMapping(&quot;/products/{id}&quot;)&lt;/font&gt;" style="rounded=1;whiteSpace=wrap;html=1;fillColor=none;fontColor=#ffffff;strokeColor=none;" vertex="1" parent="1">
          <mxGeometry x="580" y="565.4" width="160" height="30" as="geometry" />
        </mxCell>
        <mxCell id="llS7omPs3QPFBOIF4OHb-15" value="&lt;font style=&quot;font-size: 20px;&quot;&gt;Filter&lt;/font&gt;" style="rounded=1;whiteSpace=wrap;html=1;fillColor=#fa6800;fontColor=default;strokeColor=#C73500;" vertex="1" parent="1">
          <mxGeometry x="794" y="390" width="70" height="230" as="geometry" />
        </mxCell>
        <mxCell id="llS7omPs3QPFBOIF4OHb-17" value="" style="endArrow=block;html=1;rounded=0;fillColor=#60a917;strokeColor=#2D7600;strokeWidth=10;endFill=1;" edge="1" parent="1">
          <mxGeometry width="50" height="50" relative="1" as="geometry">
            <mxPoint x="884" y="504.6" as="sourcePoint" />
            <mxPoint x="974" y="505.4" as="targetPoint" />
          </mxGeometry>
        </mxCell>
        <mxCell id="llS7omPs3QPFBOIF4OHb-18" value="" style="endArrow=block;html=1;rounded=0;fillColor=#60a917;strokeColor=#2D7600;strokeWidth=10;endFill=1;" edge="1" parent="1">
          <mxGeometry width="50" height="50" relative="1" as="geometry">
            <mxPoint x="1390" y="504.5" as="sourcePoint" />
            <mxPoint x="1500" y="504.9" as="targetPoint" />
          </mxGeometry>
        </mxCell>
        <mxCell id="llS7omPs3QPFBOIF4OHb-19" value="&lt;font style=&quot;font-size: 20px;&quot;&gt;Services&lt;/font&gt;" style="rounded=1;whiteSpace=wrap;html=1;fillColor=#b0e3e6;strokeColor=#0e8088;fontColor=#00331A;" vertex="1" parent="1">
          <mxGeometry x="1937" y="472.5" width="170" height="67.5" as="geometry" />
        </mxCell>
        <mxCell id="llS7omPs3QPFBOIF4OHb-20" value="" style="endArrow=block;html=1;rounded=0;fillColor=#60a917;strokeColor=#2D7600;strokeWidth=6;endFill=1;" edge="1" parent="1">
          <mxGeometry width="50" height="50" relative="1" as="geometry">
            <mxPoint x="1747" y="490" as="sourcePoint" />
            <mxPoint x="1927" y="490.4" as="targetPoint" />
          </mxGeometry>
        </mxCell>
        <mxCell id="llS7omPs3QPFBOIF4OHb-21" value="&lt;span style=&quot;font-size: 20px;&quot;&gt;&lt;font color=&quot;#00331a&quot;&gt;Repositories&lt;/font&gt;&lt;/span&gt;" style="rounded=1;whiteSpace=wrap;html=1;fillColor=#fad9d5;strokeColor=#ae4132;" vertex="1" parent="1">
          <mxGeometry x="1937" y="864.5" width="170" height="65" as="geometry" />
        </mxCell>
        <mxCell id="llS7omPs3QPFBOIF4OHb-22" value="&lt;font color=&quot;#00331a&quot; style=&quot;font-size: 14px;&quot;&gt;Dependency Injection&lt;/font&gt;" style="rounded=1;whiteSpace=wrap;html=1;fillColor=none;fontColor=#ffffff;strokeColor=none;fontSize=14;fontStyle=1" vertex="1" parent="1">
          <mxGeometry x="1777" y="442.5" width="100" height="30" as="geometry" />
        </mxCell>
        <mxCell id="llS7omPs3QPFBOIF4OHb-24" value="" style="endArrow=block;html=1;rounded=0;fillColor=#60a917;strokeColor=#006666;strokeWidth=6;endFill=1;" edge="1" parent="1">
          <mxGeometry width="50" height="50" relative="1" as="geometry">
            <mxPoint x="2077" y="552.3000000000001" as="sourcePoint" />
            <mxPoint x="2077" y="840" as="targetPoint" />
          </mxGeometry>
        </mxCell>
        <mxCell id="llS7omPs3QPFBOIF4OHb-25" value="" style="endArrow=block;html=1;rounded=0;fillColor=#60a917;strokeColor=#CC0066;strokeWidth=6;endFill=1;" edge="1" parent="1">
          <mxGeometry width="50" height="50" relative="1" as="geometry">
            <mxPoint x="1927" y="874.5" as="sourcePoint" />
            <mxPoint x="1837" y="874.5" as="targetPoint" />
          </mxGeometry>
        </mxCell>
        <mxCell id="llS7omPs3QPFBOIF4OHb-27" value="" style="endArrow=block;html=1;rounded=0;fillColor=#60a917;strokeColor=#CC0066;strokeWidth=6;endFill=1;" edge="1" parent="1">
          <mxGeometry width="50" height="50" relative="1" as="geometry">
            <mxPoint x="1837" y="914.5" as="sourcePoint" />
            <mxPoint x="1927" y="914.5" as="targetPoint" />
          </mxGeometry>
        </mxCell>
        <mxCell id="llS7omPs3QPFBOIF4OHb-28" value="" style="endArrow=block;html=1;rounded=0;fillColor=#60a917;strokeColor=#2D7600;strokeWidth=10;endFill=1;" edge="1" parent="1">
          <mxGeometry width="50" height="50" relative="1" as="geometry">
            <mxPoint x="1630" y="695" as="sourcePoint" />
            <mxPoint x="560" y="690" as="targetPoint" />
          </mxGeometry>
        </mxCell>
        <mxCell id="llS7omPs3QPFBOIF4OHb-29" value="" style="endArrow=none;html=1;rounded=0;fillColor=#60a917;strokeColor=#2D7600;strokeWidth=10;endFill=0;" edge="1" parent="1">
          <mxGeometry width="50" height="50" relative="1" as="geometry">
            <mxPoint x="1631.6" y="537.5" as="sourcePoint" />
            <mxPoint x="1631.6" y="700" as="targetPoint" />
          </mxGeometry>
        </mxCell>
        <mxCell id="llS7omPs3QPFBOIF4OHb-30" value="&lt;font color=&quot;#00331a&quot; style=&quot;font-size: 13px;&quot;&gt;HttpStatus.OK - 200&lt;br style=&quot;font-size: 13px;&quot;&gt;HttpStatus.CREATED - 201&lt;br style=&quot;font-size: 13px;&quot;&gt;HttpStatus.ACCEPTED - 202&lt;br style=&quot;font-size: 13px;&quot;&gt;&lt;/font&gt;" style="rounded=1;whiteSpace=wrap;html=1;fillColor=none;fontColor=#ffffff;strokeColor=none;align=left;fontSize=13;fontStyle=1" vertex="1" parent="1">
          <mxGeometry x="1390" y="640" width="207" height="40" as="geometry" />
        </mxCell>
        <mxCell id="llS7omPs3QPFBOIF4OHb-33" value="&lt;font color=&quot;#00331a&quot; style=&quot;font-size: 13px;&quot;&gt;HttpStatus.NO_CONTENT - 204&lt;br style=&quot;font-size: 13px;&quot;&gt;HttpStatus.BAD_REQUEST - 400&lt;br style=&quot;font-size: 13px;&quot;&gt;HttpStatus.UNAUTHORIZED - 401&lt;br style=&quot;font-size: 13px;&quot;&gt;HttpStatus.NOT_FOUND - 404&lt;br style=&quot;font-size: 13px;&quot;&gt;HttpStatus.REQUEST_TIMEOUT - 408&lt;br style=&quot;font-size: 13px;&quot;&gt;&lt;/font&gt;" style="rounded=1;whiteSpace=wrap;html=1;fillColor=none;fontColor=#ffffff;strokeColor=none;labelBorderColor=none;spacing=2;spacingBottom=3;verticalAlign=middle;align=left;fontSize=13;fontStyle=1" vertex="1" parent="1">
          <mxGeometry x="1090" y="710" width="270" height="82.5" as="geometry" />
        </mxCell>
        <mxCell id="J2l2GyL0rl8SyRab868N-1" value="" style="endArrow=block;html=1;rounded=0;fillColor=#60a917;strokeColor=#2D7600;strokeWidth=6;endFill=1;" edge="1" parent="1">
          <mxGeometry width="50" height="50" relative="1" as="geometry">
            <mxPoint x="1917" y="530" as="sourcePoint" />
            <mxPoint x="1747" y="530" as="targetPoint" />
          </mxGeometry>
        </mxCell>
        <mxCell id="J2l2GyL0rl8SyRab868N-2" value="" style="endArrow=block;html=1;rounded=0;fillColor=#60a917;strokeColor=#006666;strokeWidth=6;endFill=1;" edge="1" parent="1">
          <mxGeometry width="50" height="50" relative="1" as="geometry">
            <mxPoint x="1966" y="840" as="sourcePoint" />
            <mxPoint x="1966" y="555" as="targetPoint" />
          </mxGeometry>
        </mxCell>
        <mxCell id="nnmazYxCTnmq1WP2z6X8-2" value="&lt;font color=&quot;#00331a&quot;&gt;Request Object&lt;br&gt;Data Transfer Object&lt;br&gt;&lt;/font&gt;" style="rounded=1;whiteSpace=wrap;html=1;fillColor=none;fontColor=#ffffff;strokeColor=none;" vertex="1" parent="1">
          <mxGeometry x="1190" y="442.5" width="160" height="30" as="geometry" />
        </mxCell>
        <mxCell id="nnmazYxCTnmq1WP2z6X8-5" value="" style="edgeStyle=orthogonalEdgeStyle;rounded=0;orthogonalLoop=1;jettySize=auto;html=1;" edge="1" parent="1" source="nnmazYxCTnmq1WP2z6X8-3" target="nnmazYxCTnmq1WP2z6X8-4">
          <mxGeometry relative="1" as="geometry" />
        </mxCell>
        <mxCell id="nnmazYxCTnmq1WP2z6X8-3" value="&lt;font style=&quot;font-size: 20px;&quot;&gt;JSON objects&lt;/font&gt;" style="rounded=1;whiteSpace=wrap;html=1;fillColor=#dae8fc;strokeColor=#6c8ebf;" vertex="1" parent="1">
          <mxGeometry x="990" y="482.5" width="160" height="45" as="geometry" />
        </mxCell>
        <mxCell id="nnmazYxCTnmq1WP2z6X8-4" value="&lt;font style=&quot;font-size: 20px;&quot;&gt;RequestObject&lt;/font&gt;" style="rounded=1;whiteSpace=wrap;html=1;fillColor=#d5e8d4;strokeColor=#82b366;" vertex="1" parent="1">
          <mxGeometry x="1190" y="482.5" width="160" height="45" as="geometry" />
        </mxCell>
        <mxCell id="nnmazYxCTnmq1WP2z6X8-6" value="" style="rounded=1;whiteSpace=wrap;html=1;fillColor=none;strokeColor=#9673a6;arcSize=4;" vertex="1" parent="1">
          <mxGeometry x="980" y="380" width="400" height="240" as="geometry" />
        </mxCell>
        <mxCell id="nnmazYxCTnmq1WP2z6X8-7" value="&lt;font color=&quot;#00331a&quot; style=&quot;font-size: 14px;&quot;&gt;Data Validation:&lt;br style=&quot;font-size: 14px;&quot;&gt;@NotBlank, @NotNull, @Pattern&lt;br style=&quot;font-size: 14px;&quot;&gt;&lt;/font&gt;" style="rounded=1;whiteSpace=wrap;html=1;fillColor=none;fontColor=#ffffff;strokeColor=none;fontSize=14;fontStyle=1" vertex="1" parent="1">
          <mxGeometry x="1055" y="390" width="250" height="30" as="geometry" />
        </mxCell>
        <mxCell id="6uDZv4sGKnMwtpJIftTi-1" value="&lt;font style=&quot;font-size: 20px;&quot;&gt;Frontend&lt;br&gt;Chrome,&lt;br&gt;Mobile App&lt;br&gt;&lt;/font&gt;" style="rounded=1;whiteSpace=wrap;html=1;fillColor=#d5e8d4;strokeColor=#82b366;" vertex="1" parent="1">
          <mxGeometry x="410" y="380" width="120" height="442" as="geometry" />
        </mxCell>
        <mxCell id="Nlpay5NyK1JVF12sI-AN-1" value="&lt;span style=&quot;font-size: 20px;&quot;&gt;Model&lt;/span&gt;" style="rounded=1;whiteSpace=wrap;html=1;fillColor=#a20025;strokeColor=#6F0000;fontColor=#ffffff;" vertex="1" parent="1">
          <mxGeometry x="1710" y="862" width="100" height="67.5" as="geometry" />
        </mxCell>
        <mxCell id="coj4zH-bI5ZBRIY0yJqz-1" value="&lt;font color=&quot;#00331a&quot; style=&quot;font-size: 14px;&quot;&gt;@RestController&lt;/font&gt;" style="rounded=1;whiteSpace=wrap;html=1;fillColor=none;fontColor=#ffffff;strokeColor=none;fontStyle=1;fontSize=14;" vertex="1" parent="1">
          <mxGeometry x="1582" y="430" width="100" height="30" as="geometry" />
        </mxCell>
        <mxCell id="O3E_1qvavz6VtICaqAGE-1" value="&lt;font color=&quot;#00331a&quot; style=&quot;font-size: 13px;&quot;&gt;Parameters: &lt;span style=&quot;font-weight: normal;&quot;&gt;@RequestParam,@PathVariable,&lt;br&gt;&lt;/span&gt;object ?&lt;br style=&quot;font-size: 13px;&quot;&gt;&lt;/font&gt;" style="rounded=1;whiteSpace=wrap;html=1;fillColor=none;fontColor=#ffffff;strokeColor=none;align=left;fontSize=13;fontStyle=1" vertex="1" parent="1">
          <mxGeometry x="749" y="310" width="207" height="50" as="geometry" />
        </mxCell>
        <mxCell id="JT3ThfTVsHlscBHciZuW-1" value="&lt;font color=&quot;#00331a&quot; style=&quot;font-size: 14px;&quot;&gt;Dependency Injection&lt;/font&gt;" style="rounded=1;whiteSpace=wrap;html=1;fillColor=none;fontColor=#ffffff;strokeColor=none;fontSize=14;fontStyle=1" vertex="1" parent="1">
          <mxGeometry x="2100" y="640" width="100" height="30" as="geometry" />
        </mxCell>
        <mxCell id="kwEEwiQQQtkHChnBg2Hz-1" value="" style="shape=image;verticalLabelPosition=bottom;labelBackgroundColor=default;verticalAlign=top;aspect=fixed;imageAspect=0;image=data:image/png,iVBORw0KGgoAAAANSUhEUgAABLAAAAGRCAYAAAB16Ur7AAAABGdBTUEAALGPC/xhBQAAACBjSFJNAAB6JgAAgIQAAPoAAACA6AAAdTAAAOpgAAA6mAAAF3CculE8AAAABmJLR0QA/wD/AP+gvaeTAACAAElEQVR42uzdeZxbZb0/8M9zTpZZkum+0mW6srQFsahsyqoCsihaUNpiO8mkpdyqXK/iVa+Men8KLqAXhTYzmVbKIozsgoIgLiiogNB9oXSZYbpNZ0tmkpzt+/tjplCWLjNNJifJ5/169eV9cSfJyfd5znPO883zfA9AREREREREREREREREREREREREREREREREREREREREREREREREREREREREREREREREREREREREREREREREREREREREREREREREREREREREREREREREREREREREREREREREREREREREREREREREREREmaQYAqL8IYC2ZtaEQSXAkAP/zVFK/Jpqm/Tq9nZGiIiIiIiIiAoRE1hELrNm5qRROnCyAk5RkKlQmAjBRADjAAQP81IHkFZAvSnAGxrUGxBscjT7FccJrpmxbp3B6BIREREREVE+YgKLKIfWzZjh01TiNEA7U0HOAnA6gNFZ+CgTwBoAf1WQP8Pw//X4zZtb2AJERERERESUD5jAIhpg62ZMnqBpzsUKuASCCwCU5+AwRBReVaKeFOU8ccIJO/6pGmCzdYiIiIiIiMiNmMAiyrKXZs/2lqf3n6UULobIJYCa6b6jlBZAPQiR+48/acdfmMwiIiIiIiIiN2ECiygLGs8YV5qI6xcrqKsBfBLAoDw6/N0K0iAi9x+/buffFSBsUSIiIiIiIsolJrCIMqSnnlXyEwr21YC6AocvuJ4vdiqoBoH69Qlr33iJrUxERERERES5wAQW0TGQOdA3r598hihnDoAvABhRwF93IxRWepS+YurqrXvZ+kRERERERDRQmMAi6ocNsyaeoUSbB8jnAIwssq9vAOpxpZz66SfseIr1soiIiIiIiCjbmMAiOkqbThl3nNiezwGoAnAyIwIA2AXBXTb0uhnrtr7OcBAREREREVE2MIFFdBjbKitL0kF1mRLnWgEuApSHUTnkcPKyKEQN1X3PKav3dDEeRERERERElLEZJ0NA9F4bZk2YrTlaRBS+gMIoxj6QOgF5VFP6XdPXvPEMw0FERERERETHigksol7rZkyeoGvOFyCoBjCFEcmIDVD4FQu/ExERERER0bFgAouK2tbZkwdZKZkjyvkioM7iOZE1BpQ8poD66SfseJqF34mIiIiIiKgvOFmnonTQFsG5AMoZkQEddZrhYBULvxMREREREdHRTyWJisSmU8YdJ45nHrcIumoIYuF3IiIiIiIiOvLskSGgQrZl6lS/XWpfzqcIuh4LvxMREREREdEhMYFFBWndSRNm6EqbDyUhQA1nRPIKC78TERERERHROzCBRQVj9awJQ7zQ5yiRRQA+yIjkPUNBnhal3bVr2LaHz/sTLIaEiIiIiIioODGBRXlN5kDfsmHiRQ60hYBcBsDHqBRkSzdBYaXoKnbiq9u3Mx5ERERERETFhQksyksbTpk8HbZzjQIWAJjIiBQNRyB/1ERbVVZhNox/oSnJkBARERERERU+JrAobzSeMa60K+G9VMSJKKgL2H+LXrsSPCBK/fKEtdtWMxxERERERESFiwkAcr0NMyeeqaBCgFwFqAAjQu8lz4uouq4So+G0l5u7GQ8iIiIiIqLCwgQWudJBBdmXADiFEaGj1KkEvwa0Vceve+N5hoOIiIiIiKgwMIFFriGAtmXW5PMdcSIAroDLC7JrgQBG19yM+NNPIvHsUxDbZiO6qz+tVwp3iWnWnbjxzf2MCBERERERUf5iAotybsvJU8fZYs2Fg8VQqMynYx9atRgjbrgR1t7d6PztI2h/4F6YbzayUd0lBeBxTWnRaWveeFYBwpAQERERERHlFyawKCe2TJ3qt0vty5U41wrUxQD0vDyB/CWY/MRz8Iwa3fMfHAddf/8LOh68H4k/PQOxrPxvLE1H6amzkfz3S4Dj5Pd3EWyGhnqP0ldMXb11L89EIiIiIiKiPJl/MwQ0kLbMmHCSDe1aKAkBanghfKdBn7kKo793y3v+u93ZgfjTT6L93l8hvWVTfn0pTUfpB05F8BOfQvATlyC1bg3eXBoupK5oKMjTorS7jj9h20OqAdz/SURERERE5GJMYFHWbZ09eZBhyNVKcC0gZxXcF9R0VD74JPxTpx/yT1Lr16Cj4T50PvEonGS3a7/HW0mriy6FZ9jb+cWm6xag6/k/F2oXfROCu8WLZSe+un07z1giIiIiIiL3YQKLsmbDrAmzNUeLiMJcAOWF/F0D55yP434RO+LfOYkEOn//ODoa7kNq/ZrcDwA+H8rP/CjKz7kAwQs+CX3I0Pf8jdm4A29cen7+bx88Mkcgf1RKiyZ8Qx857eWXTZ7FRERERERE7sAEFmXU+hMnjtE86lolEhaoqcX03cfH7kXZh8846r83tm5Bx2MPoeOh+2G3tw3cSe/3o/yMsxH8xKcQOO/j0AKBw/793h//P7TdVVdsXXk3BL+yodfNWLf1dZ7ZREREREREucUEFh0zmQN9y8bJ5zniRAB8GoC3GONQMusUTLznYUD17bSSdBqJPz+L9oZ70f2PvwOS+YfkKX8Jys84qydpdf4noJWXH+WxpbD1gjNgd7QX8zD5sihEu3zpu097ubmbZzwREREREVEOZmYMAfXXhlMmT4ftXKOAKgDjGRFg7K13IPjxi/v9emPHNnQ89AA6HmmA3br/mI5FKylF2eln9iStLvgktLKyPr9Hx8MPYPd3bmTD9mhXggcUcOf0ddtfZTiIiIiI8kMkEhlkmqavpKTEuvPOO9uK6btXVVUFRaSkpKTE8ng83bfffnuaPYLyFRNY1CfbKitL0kF1mYgTUVAXsA+9k2/iJFQ+8jSUx3Nsb+TY6P7ni2hvuBeJZ5+C2Ef3kDy9YhDKz70AwU98CuVnnA3l8x3TYez4/OVIrVvDhn3v0PmyKESV4bvvhE2b4owHERERkTssXLhwhKZ5LoNS5wE4FcBUAP6D/sQEsA3AvxXUHy1Lf2zlyjt2F8J3X7BgQYnm9V4MURcoqNMBmQ4g+K4/axaojRrkr46jnqqvX/4iAGHPobyYhTEEdDQ2zJowW4l2LYB5AIYyIoc26n/+F4Ovmpux97P27kbnbx9B+wP3wnyz8T3/f33QYJSfc35P0urMj0J5M7ODM7n639g590o26BHCBOC3mtKi09e88QzDQURERJQb1dXVZzpQX4PgU+hbSRMLkCcU5Oa6uroX8/G7RyKRCZaDryrgWgCD+/jyrQL8wkwna1etWtXFnkRuxgQWHdK2D1QOTtnqKiVyHYAPMCJHxzN8BCY98ad+bdk7LMdB19//go6HHkByzasInHMBgh+/GGUf+gig6Rn/Hru+9VV0PvYQG/TobYDCr1TaFzt+8+YWhoOIiIgo+6qqrpusdPv/ehNXxzo7fsSxPF9aseKOxnz47pFIpMwW9W2IfBWA7xjfbreC+lpd3fK72avIrZjAoncQQNsya/L5jtjXAupzAEoZlb4bfv0NGLb4S3l7/HZbG7Z+/AxImlvk+yEN4DFNadFpa954VnFJNhEREVFWVIUXXasgdwAoz+DbxhVUdV3d8vvd/N0XRCKzNAcPKOCEDL/1Q7qGqmg02sEeRm7DBBYBADadMu44cTzzIIgAmMyIHButrAyTnvwzPMOG5+Xxt8buxL6f/YgNeey2CHCvF3ps6tqtjQwHERER0bGrqanRGht33QolX87iRPk7dXXR77vx+4fD4fMF2iN4b32rTNng2J5P5stKNCoeTGAVsXUzZvg0dH9SKZkPyGcA5WFUMmfIF67FyG9+N/8O3HHwxiXnvm+9Leo3WyDPKaVFdw3b9vB5f4LFkBARERH1bw4bDlfXClRoACbLP6iri37LTV++urr6k46ox3DsWwaPZKuCc1ZdXd0edjlyzcnPEBSf9SdPmak5dhg9BdmHMSJZOrk8HlQ+8gf4Jlbm1XEn/vQs3lwaZgNmT6MA9Y5o9TPWvbGT4SAiIiI6eqFQ9feh1LcH6vNEqevqa5cvc8N3r6padIrS5G/I7JbJQ3934F/lpf6P3n777awrQu6YYzMExWHL1KkVjt/+tKOc+QrqQkZkYAQvuhRjf3x7Xh1z0+Ivoutvf2HjZZ8jkD8qpUVtp+zRGevWGQwJERER0aGFw4suEchvB3gem+5difRyLr/7/Pnzy33+0pcBHD/AGYPbYrXR/2TvIzdgAqvAbZg1YbbmaBFRcg2gAozIQJ9hChPufhClJ5+aF4drNu7AG5eeDzgO225gtSlBg6NpvzhxzRtrGA4iIiKid6qqqgpqmmeDAMfl4OPX6ho+GI1GzVx9/3A48iMBvpaDj3Yg2hmx2LJ/shdSrrHmUQFaN6NytK5wNYAQBLNEAcxVDjz/1OkIfuoKeEePzZtjbr//HiavcmOIKESUOJGNMye9LApRQ3Xfc8rqPV0MDRERERGgaZ7/yVHyCgBm2iLVAO7IxYeHw+FJAnwlV6GH5twM4Hz2Qso1ZjUKhMyBvmXDxIscqDCATwHwMioDTx88BMELL0LF5Vei9NTT8qsPpVPYesEZsDva2ZDu0C5K3aM7Ujd93fZXGQ4iIiIqVpFIZLjtYDsGqPbTITR2drRNbWhoGPCyD6HQol9CyZJctoGj4fQV0eg/2Bspl7gCK89tOXnqOFusuZvWYzEUKhmRgaf8JQiccz4qLv8sys/+GJSen6dV5xOPMnnlLoOVyPWOwvUbZ056GZBVtlirZqxramVoiIiIqJhYDhaq3CavAGB8cPDgywA8OJAfGolEymxH5ue6DTRbhQAwgUU5xQRWHlo3Y4ZP17qvUOJcazvWxQB0rqUb6BFcR/mZZ6PiU59G4IJPQCsty/uv5Js4CYHzP4Guvz4HMU22savIbACzdeW5eePMysc1pUWnrXnjWQUIY0NERESFTvU8PT33UwDR5mKAE1iWyKUKKpj7RpDPzpkz57qGhgabPZJyOBZQvtg0q/IEcbAAClUARjAiA88/dToqLvsMKi7/LDzDC7MJ7M4OxJ9+Ep2PP4TkKy+x0V08JEBhhe7x1E/79+v7GA4iIiIqRJFIZIzt4E2XzF3juoZhA1nMPRSO1AIIuyN54JyW66cxUnHjCiyX21ZZWZIOqstEnIgILoBi0nHAT5JRoxH8+MUYdMXn4D/hpIL/vnrFIAz+3Bcw+HNfgLF1Czoeewidj/4G1v4WdgZ3OR6Cm23T+t7GmZWPiqhVJ5y07UnVAP4qRkRERAXDcdRZgLhlDhR0HOdkAAOWxFHAR9yy5F6U+shAfnei98zNGQJ32jBrwmwl2rVpYB5EhjJvNbC0QBCB8z+OQZddibKPnAmo4oy/b8o0jLjhRoz48n+h+58vor3hXiSe+wO3GLqsmQDMUUrmbNowsWnjDHWP46g7T9qwbQdDQ0RERPlOxDnJTffijlInYICSODU1NVpjU/M0t3x3JWoaeyTlEhNYLrJ19uRBhiFXA7JYCU5lRAaYpqPsw6dj0OWfReDjF0ErKWVMDo7N6Weh7PSzuMXQ1dQ4KNyo6fK1DTMn/lEpLZrwDX3ktJdfZsaRiIiI8vQ+VI11U9VPBW3cQH1Wc3PzUAAlbvnuAoxhh6RcYgLLBTbMmjBbc7SImXbmKaCMERlYJSfNQsXlV6Li4sugDx3GgBwBtxjmya0e1IUQuTCQ3r9r44zKu3Rl105b27iVoSEiIqJ8okQFxE0ZLJEBK6hu23Y5lO6i1pAgeyTlEhNYObJuRuVoXcMXlUhYRE0V7hAcUN6xxyF40WUYdOXV8E2sZED66d1bDDsefwjxp56EpFMMjnuMgcKNNvSvbZw56QVRuCsQMFeNf6EpydAQERGR2wnEXXNWGbjj0XXdYzsu+u5KMX9AOcUOOKCDL7Qtsyaf74gTAfBpCLzC2lYDRq8YhOAnLkHF5Vei9AOzi7auVVYctMVw1DduQudTT3CLoQtbCZCzlOCsrrjnlk0zKh8A1B3Hr9v2GkNDRERERERuxwTWANhy8tRxtlhzNwmugzgTGZGBVX7G2Rg8dyHKz/oYlIddPtu0YMVbWwzTWzah45HfIP7EI9xi6C6DRSECSGTjzEkvi0LUccrunbFuXYKhISIiIiIiN+JsPku2TJ3qt0vty5U419qOdTEAnVHJja4XnkfXC89DrxgEz8hR0IeP6PnfikHwjBgJz4hR0CoGwTNiBDwjRsEzbBigsbkywT/teIz82rcw8qvf4BZD15LZSrBcV10/3jSj8teAtur4dW88z7gQEREREZGbMIGVYZtmVZ4gDhbYyqqCYAS3CLqH3dkBu7MDeH3zEf/2QLJLq6iAZ/jItxJeem/CS6+o6El+jRkLpfM0OiJuMcwHFT2rspzIhpmV65XCXWKadSdufHM/Q0NERERERLnGmXcGNJ4xrrQr4b1UxImI4ELmrPLfW8muI9E0eIYMhT50GDzDR0AfNhz6kGHwjBjZ89+GDYNneM//rQ8dVpRbGMWyYO9vgbm7Gda+vbD27Ia1by+8x42H+WYTrD272eFcRgEnQXCz8ni/u3Fm5WOa0qLT1rzxrIKbHgFERERERETFhAmsY7Bh1oTZmqNFuuL4AiBBxcxV8XEcWPtbYO1vQXrLpiP+uT5kKDzDhvf874hR0IcOhT5sODzDR8AzdBi8EyfBN3FS3nx9u60VVss+WLube/53z25Ye/fA2rsb1t69sPbt6al9Jcx75Ck/gDmOOHM2zajcvFFDvUfpK6au3rqXoSEiIiIiooHEBFYfbftA5eCUra5SItdB8AFhzor6wG5rhd3Wesj/v1ZejkmPPQvPyFE5PU4xDNgd7bD27YHZ1NizcmrvHlgtPf9rt+yDuetNOF1dbNRioTAdgpstsf/fhpkTn1NKi+4atu3h8/4Ei8EhIiIiyryUpqW8juOeAxJJslUol5jAOkoHVlulLcxTkDJGhLLB6erCvltvxpibb8vaZ9idHbD37YW1by+Mpp09//dbyam9Pf+7by9XTdGh6ArqQohcOKal8s2NM3C3pjnR6Wt2vsHQEBEREWVwsm4YndBcNGVXqpOtQjk9JxiCQ1t/4sQxmkddC0E1BFO42ooGQueTj2LQZ69G2YdOz9h7Jp57Bnv+99uwWloAx2aQKVOOg8KNjmhf2zhz0guicFeXL333aS83dzM0RERERMemvr4+HgpH9gMY5objEcF2tgrlksYQvOukBLTNsyZfuHFm5QOarnZAcDOAKYwMDeSVYc//+w7EytzOrLZVMVh79zB5lQGWzZVp738tkbOUyPJA2te8aUbl8k0zJp/NsBAREREds3VuORAl2MjmoFziCqxer8+cMt5S9jWbBEsgzgRGhHLJ2LoFbfeswNAvVh/7e73xOrpf+geDegxsCDpNC622hXjawJvdXZgeCGJSIACP4tLMdxkkChHAiWyYWbleKdyl0r7Y8Zs3tzA0RERERH32VwAfc8OB6DqeZ3NQLhX1CqwtU6f6N86aNGfDzIl/sGAfWG3F5BW5wv47fw5r7+5jfp+2X69iPat+SjkOmg0Dm7uSaDYMpOyeIpr70wZe2L8fv2lsxAv792O/YTBY70MBJ0Fws/iMpo0zKx/YMGPSZTIHOiNDREREdJQTdiVPuuTGbn00Gt3JFqGcng/F+KU3z5x44sYZlTfbJWYTRB5QUBf2zLWI3MPp6sK+n/7w2N6juxudjz/EYPaBLYI208TWZBJbk0m0mSYcvH8C0HAcbInH8URzM57Y1Ywt8TgscRjE9/IDmKOUPLZpQ+WOjTMqb948a8JkhoWIiIjo8Gpra18AkPOH5SjBr9kalGtFs4Vw4/HHB5XH+IyjnPkO1IU96SrmrMjdOp98DIOuvBplHzmzf69//CE4iQQDeRRSjoNWy0K7ZfZrwdr+tIEX0vvxUmsbJpSXYXJ5OcaUljKw78XC70RERERHTyD4BRRuzeExpB3HirEpKNcKfgXWhlkTZm+aUbkc3lSzKPlV72ororyx54c1/S7o3n7/3QzgYTi9q61eP2i11RGTV0fIe5viYGsigT/s2YPH3nwTazs6YDhclfX+1593Fn7fMGvCbIaFiIiI6J0MIxkFsDtXn68gK+rr65vZEpRrBbkCa9sHKgenbHWVElkCwSnC1VZHOZ3UoQcC0CoGQQsGoQeC0AJBKK+3Z+Dy+aCVvHNFiWOkIakUAEAsC05XAk48DruzA04iDicRz+jT9IrygrV1C9ruXoGhC/pW0D358j+R3rKJAXwXAZB0bLRbNjosE04Wy4O1myZeaWvDa+3tGFdWhumBAEaXlnI0eq9BohBRorHwOxEREdG7rFq1qisUinwDCitz8PEdHo9+E1uB3KBgElgCaJtnTD4TcOanLcxXEO7dOZimwztmLHwTJsI7oRLeMWPhGTEK+oiR8IwYCc/wEdAHD8nKRzuJOKy9e2Dt29vzr2UfrF1vwti5HebO7TCb32SS6wj2L/s5Ki65DJ6Ro4/6NW2/XsXAHcQSQbtpoc0yYQxwUXtbBDu6urCjqwsVXi+mBgKYFgzAr7Ge+bsdVPj9uxtnVj4moladcNK2J1UDbEaHiIiIilUsFr0rFK7+DKCuGOCJ9peXLVu2ly1AbpD3Caz1J04co3nUtZsE1YAzhU0KeMeOg//4E9/+N2UavOMmvLWSaqBpgSB8gSB8k6e+/5hoWzDffBPGtq1Ib1rf82/jehhNjQC3XgHoKei+9yc/wNgf/d9R/b3Vsg+JZ58q+rgJgC7bRptlIW7ZEOT+aYydXJV1tA4Ufp+zacPEpo0z1D3QZfkJq3dsY2iIiIioGG9tdU2FbQczAQzMvFfUylhs+a8YenKLvExgyRzoWzZOPs8RJwLIZyDFU4z+3ZTfj5IZJ6Ns9odR+sHTUHrKB6EFK/LrO+ge+CZMhG/CRATOOf+t/+50dSG19jUkX/kXul/5F1Kr/w2nu3jrPMd/9zi6P/v5oyro3vHgryGmWbSxemu1lW3CcMSVx3jwqqygx4tpwQCmBgIo0bkq631GiXFQuBGOYuF3IiIiKlrRaLRlwaJFF+u2/BXAqCx/3LOdna2LGHVy1awgnw523YwpUzXYIaXwRQBjirXR/NOOR/lHz0P5R89F6cmnQvl8RfG9xbaQXrcWib8+h66/PofUhnVFt0LLN3ESKh/6/eHb3LHxxsXnwGx+s6hic/Bqq84sbkk1bQurW9uy8t6aAkaVlGJ6IIDxZeXQuCzrcFoV5B4lqn76uu2vMhxERESFKRSO/BrA1e656ZRbYrHab+TyEKqrq6c7jnoKCpVZ+ojHO4PlVzfcdluSPZDcxPXToy1Tp/rtUvtyESeioC5AMVZjVwqlp85GxcWXo/ycC+AdM5Y9F4C1vwVdf/kj4r//Lbpe/DvgFEeJnBE3fANDqw79Y0j8md+j+YbriqYfmOKgw7TRalkwJfsJTdO2sbq1NeufU+bRMbk8gOODQZR7PDzhD3cfCbDwOxERUYFiAuv9RSKR4bbgHgg+kcG3dQD8sLOj7aaGhgbWHyXXcW0yaPPMiSc6or4IJSFADS/GxvFNmoKKy69ExSVXwDv2OPbWw7Ba9iH++9+i87GHkNqwtqC/q1ZSispH/3DIPtFYPQ/dL/6toGMgECTsnicJxm0LA1mTfaASWAcP0qNLe1ZlTSgrg1JclnUYaUAeEKX/+MQ1b6xhOIiIiPIfE1iHv1UMhSIhKNwMYNgxvtdqTcl1tbW1f2evI7dy1Uxoy9SpFVap/XklEgbwoaJsEU1D2YfPwJB5VQh87DyAk9U+S61fg46G+9Dx+EOQdLogv2Pwk5/C2J/84j3/3dixHdsuOx8QKcjvbYiDNstCu2nBytF3HOgE1sFKdR1TAgFMDwYR4Kqsw95aKuAZEbn5hHU7/shwEBER5S8msI6sqqoqqJT+H1BqMYAJfUwJvKiAn40bN6ahpqaGT9AiV3NFdmTDrAmzNUeLiJJrABUoyobQdVRc/lkMi1wP77gJ7JkZYO3bi9b6ZWhvuLcgE1nj7lyJ8rPPecd/23vL99B294rCykQAiFsW2iwLCTv3K5lzmcA6eOA+sCprfFkZNCa6DxetvynNvun41TufZSyIiIjyDxNYR6+mpkZratr9MVHyCYhzBqBOxDuLvVsQbIOS9RD1ZxH9yfr6Ozexl1He3Nnn6oO3faBycMpWVymRJQBOKd4WUAhedCmGX38DfBMnsUdmgbV7F/Yvvx0dDz8AsQtnK7dvYiUqH3rqrYLuTiqJNy44A3ZnR0F8v7TjoN220GZYsOGeFWWmZWN1W6trjufAqqxpwQCCHi9P+ENe7OS3tq39x0kbtu1gNIiIiPIHE1jH7rrrrhuSSCSMVatWdbFHUT4b8D0oG2ZVnqME16UtfFpB/MUcfO+4CRh90w9QdvpZ7InZ7OSjx2DUTT/A4M/Px+6abyC1dnVBfC9jx3a03V2PoVWLAQCdv30k75NXDoCEi1Zb5YOkbWNtRwfWdnRgmN+H6YEgJpUH4OEjDN95rwl1qabLeRtnVn7z+LXbb1eAMCpERERUDO688842RoEKgTYQH7Jl6tSKTTMmXr9pVuVaJfgTejLoxZu8UgpDF1Rj0iNPMXk1gPzHn4gJdz+IEV/5OpSuF8R32n/n/8FsfhMA0PHAvXn7PVKOgz2mgc3dXWhMp5m86m9/SBt4Yf9+/KapES/s3482w2BQ3qkcwM83zay8f92MGQGGg4iIiIgof2R1BdaWU6eOsEzrehvWlwA1hL93A1pZGUZ//ycIfuJiBiMHlO7B0NB1KD31NDT/5xJY+1vy+vs4qST2/fQHGDK/Ku+evugIkLDzb7VVPqxrMhwHW+JxbInH316VFQjAw1pZB8zRVdfEdTNmXDBj3boEw0FERERE5H5ZSWCtP3HiGF3DN23TCimglGHuoQ8ZivF198A//QQGI8dKP/ghTLj3YTSG58FszO+SOPGnn4Txxut5c7wpx0GrZaHDtOAwq511+9MGXkjvx8ttbZhYXo7pwSCG9dZNK3If1rWuewBcwVAQEREREblfRrcQvjR7bNnGWZU3arraKEr9B5i8ejvQgSDGLVvJ5JWLeMeOw/jYvfCOPS7vv0v69c2uPj4bgjbTxBvJJLYmk2gzTSavBtiBVVlPNDfjiV3N2BKPw5Iif1Ky4PKNMyZdzt5BREREROR+GUtgbZo18ZJA2rcZgpsBVDC0B0dZw3H/F0XJSbMYC5fxjhmL435ZD+X3MxhZkHIcNBsGNnd3o9kwkHQcBsUFDtTKatjZhL+1tGBXMlm8wVCyhD2CiIiIiMj9jnkL4boZMwK6StwmosIM5/sbcs0XUfah0xkIl/JPnY7hS27AvttuZjAywBZBp2Wh1bKQKsCEVSFVkTLFwdZEAlsTCQz2ejE5EMC0YBB+TSua/iois3nWEhERERG53zElsNbNqBytq+7fAooTgEPQhwzB8C/9FwPhckMXhNHxSAOMbVsZjH46UNuq3TIh3B2Yd9pNE6+0teG19naMKyvD9EAAo0tLUehl301xhrL1iYiIiIjcr98/s288fvxYHXgB4K/Xh1Nx6ZXQSssYCNefCToGffZqxqGPHOmpbfX6QbWtmLzKb7YIdnR14Q979uC5PXthFPi2z4TNfa1ERERERHkxbe/Pi16aPdsLr3Y/FCoZwsOruIT1gfOnrfgwsqMhABK2jcZ0Ghu7k2g2DKSLKAcgBb4kSVMKE8vLcf6okTh35Ej4Cnw74V7DMHlWExERERG5X7+2EAZT+/9DlDqb4TsyX+UkBiFfToYRI6EFAnASCQbjfVgiaDcttNkmDIfLrApNhdeLqYEApgYCKNH1ovjO+0wDCdviCiwiIiIionyYs/fnRQJ8iaE7Mq2sDFogyEDk0wkxagyMxBYG4n2Y4sAQQbFP9wtpAZauVFHVuzpYt2OjMZXkiU1ERERElC/z9b6+YPWsCUMg3Dp4NJxkEk4qCa2klMHIE/b+FgbhEEo1HaV+HaP9XnRaNjosCwnbLro4FMLas0FeL6YEApgWDMCv6UXXhknHwZauLnAhIRERERFR/uhzAqs1bUwd7Sth5I5qpiswG3fCP+14xiIP2J0dsNvbGIgj0KAw2OPBYI8HKcdBh22hzTRhMxngagevthpTWrxJ9S7bwpZkEtbbTxtQ7B1ERERERO7X5wRWs2HGh3t88BR4Yd9MSTzzeyaw8qWtnv4dg9BHJZqGEs2HEV4fEpaFtiJdleVmg71eTA4EMD0YLPiC7EfSYprYmezGu3bBMvVKRERERJQH+lUDa79lYZTPx+gdhY6HH8DQyPVQuofBcLn2h37NIPSTBqDC40GFx4O046DdttBuWgevcqEB5FUaKgPlmB4IYpifY7UjQGMqiX2mwc5BRERERJSn+pVV2WWkMdzrha648+JIzF3NaF0RxbDwEgbDxTofewipNa8xEBng1zSM0nwY6fUhXoCrstw86g3z+zA9EMSkQDk8iqtkASBuWdieSiLt8GGDRERERET5rF8JLMtxsDXZjWml5WAO68j23/lzBM69EP6p0xkMF7L27sHeH32fgcgwhbdXZRnioM2y0GZasLkqK6N8moaJ5eU4PhjEUK6MfYsNQXMqjb1GmnsEiYiIiIgKQL/3tXVaFnamk5hQUsoKuEcghoGm6xZgwq8a4B17HAPiIk4ijqb/CMHuaGcwssinNIzy+jDS40OXY6PNshC3LTCX1X8HVltNLg9A1zgKH2y/aaAplYLJDkZEREREVDCOqTDTPsOALYJJpaVQTGMdlrV7F5oWXYvx9ffBM2IkA+ICTiKOpkVfRHrDOgZjgCgFBHQdAV2H6fjQYVlotcy8SjTk8kgPrLY6MRjEYK62eo9u20ZjOoW4ZTEYREREREQF5pgri7eaJkxHMLmsDF7uJzwsY/sb2PH5yzH2tjtRevKpDEgu22LHdrz55QiMrVsYjBzxagrDfV4M83nRZfesyupk4uE9FIDRpaWYXF6OiWXl8HC11XvPZ8dBUzqFNtPkdkEiIiIiogKVkUfjxW0L6xJxTC4tQ4WHT9s7HGvvHjQu/DxG3vgdDJ5zDVhEbODFn34Su2+6EU4iwWC4gMLbq7Isnw/tpoU224ThFHcqolTXMSUQwLRgEEGOq+8/nopgt5HCnrQJYeqKiIiIiKigZWxWZIlgc3cXhnt9GFdSAg8TM4ckhoE93/82Op94FKNrfgjfpCkMykBMdlv2Ye8Pb0L86d8xGG4dkFTvqiy8vSorbtlFk5w4sNpqeiCA8WVl0DiOHuJ642CvYWBP7zZ2ovezYMGS0R6PMU1EHwxIiWiSEKVa7ZT39bvu+uX+Qv7u4XB4lFJqjIjoAAY5SmnK0TyABHv/pFtEtYoYr69YsWIfe8vRqaqqCmqaNslR6jhNtGGinGFwMFyUGgLAq0QpaDK452YPjgAdvS9NAWiFUq2A0wpb7dM0p1HTtB3RaLSbkaUM9tGxSvkmKSXDHWC4EmckNG2oiFQAgFIoBVACgSlAQgO6RSStlGp3lDIAZw+U2iGmZ0cisa+5oaHBZlTz1/z588tLSkqm2cBw5aghokkatooD+o4JE0btrKmp4daHLJlzww2l5d3d4zy2Ok7EHg9gFDRtKBxHE6WGKECDwqC3XuCodlEiGtANoEVEdmka9tq2tlsp641YLNbKqL49X+qTeyuHneA4zobD/Y1XKYwvKcVQr5cRPlID+Esw9IthDF1QDS1YwYBkgZNKov2+Vdgf/QWcRJwBybtkhfSsyrIsGOLk/Hhs28arrZm9hpTpOiYHApgeDCLA1VaH7Qu70insMw1kcIFe17ydbQFGtzBuFgfFuy8HcKVAzgEw6jB/3gjgz6LkkXgg8GTDbbcl8+37Ll68eKRlyWmAnCoKkyEyHlATAEwEUNKHG8E3pScWDzmm+cTKlStTxd6XemN7igP5gAZ1isCZBqjJAIZn4eNaAGyHqLWiZL0Gtc7wqNfuWrbsTZ7V9H5qamq0xsbGyYB+qlL4gACzoDAFgsl9OfeP5rILQRMUdirIehH1sqPjFS+wJhqNmgP5nUPhyK8BXO2aRhC5JRar/YYbp5ZVkchZSnA1BOcBOOkw8/0UgH8q4GlNw6+j0ehWnl19t2TJkkAqZc+CjlM0cU5xoE5WwPEAhmXhWrFFgI1K8IpSzkuWZb1ajNfsrCSwDgh4PBjv96Nc54TsSPSKQRiyoBpD5i6EVlbGgGTi2mIYaP/NfWituwPWvr0MSAFIOQ5aLQsdlolc7TDMVAJLU8Cokp7VVhPKyqC42uqQDMfBHsPAPjOdjXZnAivPRSKRQbao/4TI9f28YWxVwDJNw23RaLTFjd9xzpw5+uDBgz/iOOpsUfIhBfUh9CSqMp9MEbk9lSr52T333N5ZPMmA3Scp5XwUUGcJ5GMAxrvg0Jog+AcgL2oa/tze3v4KV8MUp6VLl/q70ukPwcHHlOBsaDgLglz+6m0Aag2UvKRE/VnT5A/ZHjuZwDryNSI4ePB8JerrAE7szzcC8JRo+H/10ejzPOsObcGCBYN13XcuNFwAwQUATuhPTiVDTAFeVQrPaZA/plKp51etWtVV6G2Q1QTWAUO9Xozzl8Cnaez1R5rUBgKouOgyDJlfBd/kqQxIP1gt+9D52INou+dXsPbuZkAKkC2CTstCq2Uh5QzsqqxjTWCVezyYVF6O44NBlHO11WGlHAe70mm0mlmtccUEVh4LhSLXQOFWHH611dFqE6Vuqq9d/gsg9/uWr7vuuiGGZX0Soj4F4CJkZ/XPoewSJV+pr619oBD7zdy5Syv8ZamPQ9SnFHBJhvpPtrUBeA6Cp0Wsx+vr65s5AhSuxYsXjzQsuUgpuRSCiwAEXXy4DqD+DXGeEQ3PxNvb/9LQ0GBkdKxnAuuQqqoWnaY0iQLIyBPCBHKf2NaXub38beFw+GSBdhUgHwfUbAC6Sw/VgMKfBOph2OZjhXqdGJAEVs8HKQzzejHG74efiawj0zQEPnouKq74HAIfOx/K72dMDjfY2ha6X3geHY89hMQffgfh0+yKKskxkKuyHNvGv/uYwNKUwviyMkwPBDC6tBRca3V43baNvYaB/aYxEFkEJrDy0IIFC0p0ry8Kwfws3Bg94/Foc5ctWzbgS3d7aix5PydwrgXU2chgrdL+xUJiHR3tSzI9Gc3NJK8qqGneKwTOFwB1IQBfHn8dB8A/IHjE9moPrFy2bDtHhfwXiUTGWA6uBnCNAk4D8vZ2oQ2ifgPg7vHjxzxfU1NzzL80MoF1iHEtHPmKAm7JwnjWLBquLubVWFVV1x2vlHU1lPo8+reqLee9FJC/i9Lu9nu0+++88862QmmbAUtgvf2BPUWax/j98Ckmso5q8hsIInjBJxG85HKUfeh0KNYWO5BJQPLVV9D5u8cRf+oJ2G2sbVfMDqzKarMsJLO4KqsvCawKrxdTAwFMDQRQoutspCNot0zsTqeRsAd0lwwTWPk3yRtkO+pxQD6axY/ZJo5+cX39nZsG4l5sYXX1xzRRCwF8DkC5y0L+rJFOXpGn2xJUOLzoQgBhQC4ToLQATwlRwF8cJStLvN7f3HHHHXzEch5ZunSpv7s7/VkoVAE4F+5d2dFfO6HUPRqce2pra9f1902YwHq/sS1yqwBfyeJnpETJ1fW1tY8V0/nYlUp9QYn2H4DMLqCvlhbI40q0ZbHY8j8C+f10rAFPYB38wRUeL8b6/SjnxO6oaSWlKPnABxE490IEL/gkPKPHFFeSor0N3f98Ad0vPI/En56B1cLVrfQ+V9wDq7JMC06Gx+gjJbB0pTCOq62OPp4QtJkmdqXTA74dtBcTWHkkEomU2Y76fZaTVwc0Q+xzYrHY61n7LjaqoPAVAO5+HLHC053tbZfly0qsUCg0VCl9oQgWQWFaEZ0iCQCrHFv9YsWK5es5YrjXgsWLKzXLWQSgSgEji+Rrv6Cgbu3oaH24r/XcmMB6p3A48iMBvjYAH2UqqE/V1S3/Q4HfW4yxHFwHYFGhn4+9ReB/aRjJFflaLytnCayDBXQPRvl8GOzxgnWM+8Y7bgJKP3gaSk89DWWnntZTN6uAgmjt24vkv1/q+ffKS0htXAc4Dhuejjo50mnZ6LCsjK3qOVQNrEFeL6YEApgWDMCvMSl/xDsicbDPMLDXMGHl9umSiXk724JskfwQCkdWAvjiAH7kZtsyPrJy5cr2DN4oD7JFFkDUjQDy51coUT+PxZZ/xdX9IxSaKEr/TwWE4L6VbAPbWsCzjpJb62trf8eRwz3C4fDJorT/guALyPEW4RzaBqWW22Z6+dGOrUxgva2qunqBErViAD+yTdfwgWg0urPQOuKCxYsrdVNugpJrkN/byvtjnwJudRzrl/X19fF8OnBXJLAO8GsaRvl8GO71Q2Miq1/0IUPgP/4klJxwEvzHnwT/CSfBN3GS67cdim3BbGpEeuN6pDasQ3rTBqQ3refTAyljUo6DDttCm2nBlv6vyjo4gXXwaqsxpaUM8tG0g+1gn5m1Jwr2BxNYeTPxWzRPIKty8NH3x+qinz/WN1m8ePFI05RvQkkY+ZlcEU3JxbW1tU+57cCqqq47Xun2tyD4PADWWXjnrf7LEPnfWCz6KPJ820g+q4pEzoajvq0gn2Q03tIOpe70ebQfH6k+DxNYvXEIhaZC6a/m4Bryl1hd9NxCGUMikchw25b/glJfBlBS3JcIdMKRO30+zy35UifLVQmsA3SlMNzrwyifj08uzARNh3fscfBNmAjvhEr4xk+EZ+xx8AwfAc/I0fAMHwHly27SWSwL9v4WmHt29fzvrmaYO7fD2LkD5s7tMN9sZOF1GhAOgERvraz+rMqybRvb43FMDgQwPRjkGHWUEraNXek0OizTdYfGBJb7LViwYLDu8W0GMCI3kxV1eSy2/PH+vHT+/PnlvpKyGyDydbj7SWJHEQds6exsm+mWrYThcHicQLsJwAIU72qWo73jfw2O+kYstvz3DMbAWbhw0UmaR2ogmMNoHFIblLqlM1D2fw233ZZ8vz9gAqs3DtWR30LwqdxcBmVefW3tPfnc0ebOXVpRUpr+Onpqh5Xz1HvHNaITjvxfKlXy43vuub3T3YfaRwORwHr74BQGez0Y7WOdrGzThwyBPmQY9EAQWjAIrTwAvWIQtGAQUBqUzwftwAoTpQGaAnon/04qBUmne/7vzg7YiTicRBxOIgEnEYfd1gqrdT8g/OGP3CUtglbTRId15FVZulIYpOsY5PWgjFsEj8qB+la7DQPJgS3M3hdMYOWBqnDkJgXU5PBuaX1ne9vJfanbUlNT42lq2lUlkBrk01bBI01ioML1dctjOe0PVVVBpXu+rQRLC7QwezZv/J8R0b4eiy37N6OR1T46VtP0HwrUPAD8pevo7ITgO+PHj1317icXMoEFhMPhjwq0v+TwW2/r7Gib1tf6ZW4RCi26DEp+AWACT7XD2g8l3+9sb/+FW9va1b9WSe/kp800UeHxYJTPj0Ee/sCWDXZbG+y2NgaC3p+mw3vcOPgqJ8M3aQrS69eg+6V/5P3X8iuFMT4fRvt8iB9iVVaJpmGox4NBHi+3Nh+lnvpWJvYZBkxhzTo6NkuXLvV3J9NLc3xDclJw8ODLATx8NH9eXV39ocam5uUATi28BIh8BUDOElhvTUIEE/izWH+6Mi6Ecl4OVUfu1hX+MxqNtjAqmROJRLyOgy8JcJPk+4rLgTcBCisbm5q/UlW1qLq+fvlLDMlB567S/jPHG/gm9eU66KJzcowtuAUi89mLjsowiPpZxaAhi0KhRf/pxlW7eZMN6rQsdFoW/JqOEV4vRvh80FnxnSijtGAFfOMnwjtuPPxTp8M3ZRq848bDN3kqtJKeH7nNpp3Y/tmLC2xCBlR4PKjweJB2HLRZFhSAwR4P/NwieNTSjo29humm+lZUALpSqUsV1LDcjxMqdKQb96qqqiA0z/86gusBFOpSzZnV1dUfqK2tfXWAJyEn2A6WA/IxnhUZ6M6C+Zbgk6FQ5OuxWPQusD7WMauKRM62BcsBnMRoHJMPKE1erApHfubR8J1oNNpd7AFZuHDhiFxtHXzHwCFqHvIogVVVXV1tC34CQQVPqz47EUp+FwpHHrI92ldXLlu23S0HlnfLmdKOjaa0jWYjjaFeL0Z5fSjl9kKivp34I0fBN3kqfOMmwDd1Ovy9iSrvceMP/xRLx8Gub/0XnO7CvZfwaxpG+3zsJH3g4vpWVAgzbUe7FMoFc2vBhfPnzy8/1GOnw+FFlwhkOYBxhd4mjoOLAbw6EJ9VU1OjNTXtCtuO3ArWLMnsuQWMhMLKULh6rmN7QytW3NHIqPTdggULSnTdWwMH/4XCTVwPNF0BX7UdXFlVXR0p9vSqpnmvgAseUKGAi5cuXeq//fbb026OV88W/jdvFVFLeSodsyt1y7koVL3oe53trT9xw7bCvN2P54igxTDQYhi92wt9qPB4wTVZRL0Xu6NYTdVXrSujSL7yLwaX4EDQalrYY6TdXN+KCmKW7ZoVN36/v+xMAH94142ytrOpuUYg3waK5DZE4ewBSQwsWjRtZ1PzSgWcyRMhqw36cU23VleFF325vm75XYzH0QuHw6cLtF8BmM5oZMUkJeppAJ3FfYriHDcchgCl3d3maQD+5tZQhUKhoY1NzQ8A6gKePhlTBpGbKwYN+bwbtvcWREGpt7cXahjh9WG4zwcPtxdSMVzPdB2eMcf1JKbevZpqXGZrFBpbt6Dljp8x6EXO6v3xYK+ZhsF9gpRlkUikzHZQ6ZbjcSAzcFACa86cOb6mpl2rFHBVkV19Tsh+YmDR58SWWgCDeSYMiMEK8qtQOHKFbRmhlStXtjMkhz8JQtXVXxJRP4YLVsYUeqwBDCryGMx2TWMoZzZcmsCqqrrueMB+HMA0njZZ8QGlyQuhUPVPbdusWblyZSoXB1FQFdHTjoOmdArN6RSGen0Y5eP2QioMh1pN5Z8yDcpfkvXPF9vCrm999a2nTVLx6bZt7DUNtBoGWJadBoqIjOt59K1LxmJg4oH/e8mSJYGUYT8qkPOLsGnGZ+uN59xwQ2kw3nWzQL7EMyAnrtR136zq6uqrBrrOWb5YuHDhCE3z/gqCixkNyraamhqtsal5snuuy2qyG+PUUyfRfg7AaPaarPJAqRt1j+/y6urqL9bW1v5r4A+gADkAWkwDLaaBMl3HKJ8Pwzzew9f2Icqxg1dTHUhS+cZNyMpqqr7af+f/IbVuDRup2JIHELSbFvaZBjotiwGhHNwoS9BNu/Kc3lUAS5cu9SeT6YcVcH6RNo13zg03lDbcdlsyk28aDocnSbzrEQAns/fn8oYE0xxRL4RC1ZFYrHYVA/K2UGjxh6GchwGMZTRoILzxxr4hXh/8Lroyj3JbjKqqrjveduw/gsmrgXSiI+rvoVD1T8vKSm4ayLponkKPbLdtY1syiSaVwgifDyO9Pnj4VDHKIb1iELy9ialcrKbqq9SGtWiN3cmGKyKW46DFNLHXNGA4XG9FOeWqrTkalG/OnDl6dyq9CsCFxdwwoy0ro4NDVSRytuPgQQWMZLd3hRIodVdVOHLahHFjb6ipqSn6i0GouvrzECcGoIzdgwbsRCwxy203nX0agm6KTzgcPlFgPwdgFHvLgPNAqRu7k+lPVldXz6utrV03MB9aJEwRNKfT2JU2MNjrwWifH+XcXkhZ4ubVVH0hhoHd3/wqhKtvikK3Y2OvYaDVNMDyVkTv5cDRKgYPWQHBnCIPRSqTv7aGw4si4sgvwFpC7rufAb7U2NQ8af78+V841BM4iyEMoVD1DyHqRvYIygEvj+f9hUKhqQLtWTB5lWsfEFH/qqquXlJfW7sy2x/mKbboCgRtpok200RA1zHS58cQrweKzy+kfjj0aqrpUH5/3n+/fT/7EdKvb2ZDF/KYKEC7bWGvkUaciUqiI0zm1WcgKGEg8EbGJiDVi24UkZvZu1ztMq+/9LlIJHJJNBptKaYvXlNT42l8s3k5BFXsBkTuMXfu0gqo9GMAxjAaLphPAKVK1IpwOHJcXV30/2XzszzFHOiEbSOR7IYnpTDc58NInw8+xe2F9K779EOspvJNmQbPiMLd6ZD890tou2clO0CBsiHYbxjYbXCbIFEfMHkFQIlae6zvMWfOHL1i8JBfQmQRI5oHbQ58yHbwl4ULl3xyxYo7GovhO8+fP7+8sbG5AYrF2oncpLew/d0ATmQ03EWA/62qXpSsr11+a7Y+w8Mw9zwWfnc6jT3pNIIeD0b5fBjk4Sr2YlPoq6n6wkl2Y/e3/wtwbHaMApN2bOw1TOwz09wmSET9vUX907G8OhKJeC1H7oXgc4xlXjlR06y/hEKhc2Ox2I5C/qKRSGSQbeMpKHyEzU7kLo1Nzd8DcBkj4U5K5MdV1dUb6mtrf5eN92cC6+DbMQCdloVOy4Jf0zHC68UInw86n15YOCeUxwPP6LFFt5qqr/b+6Pswdu5gIApobItbFvYYBjoskwEhomPh2Lbnt/198Zw5c3TLkV8pKCav8vJGCpWA/pdwOHxuXV3dtkL8ikxeEblXVXX1ZyH4JiPhahpErVy4cOHMFStW7Mv0mzOBdQhpx0ZT2kZzOoWhXh9G+n0o01j0PV8cWE3lmzoN/inT3l5ZVYSrqfqq64Xn0fHg/QxEAbAhaDNM7DHSSHKbIBFlgAL+2N8tZJFIxGvbuA/AZxnJvDZBoD27cOGScwptO+GCBQsGWw6eVgofYjMTuUs4HB4loqI9lyJy+b3CSKV7fwCgOtPvzQTWETgAWkwDLaaBMl3HSK8PQ30+sFKWC06MQ62mmjodnuEjGKD+9Pd4J3Z/5+s9lb0pb6UdB/tMA/sMAzbbkogyeZ1w8OP+XrZtW0WhhMmrwjBJ06xnFy9efPayZcv2FsIXikQiZbaNxwEmr4jcSJR2OwRDGYm8sbC6uvrHtbW1GX0iGBNYfdBt29huJ9GUTrHo+wDSghUoOf5EeCsnwVc5Gf5JU+CtnALvccdB6ezCmbTnf78Da/cuBiJPJWwbe4w02i2TOUgiyjgF/DlWH326P68NVUd+CpEFjGJBdYhppmU/Pn/+/PNXrVrVlc9fpXd14G+gcDYblsh9wuFFV4jIHEYir+i2qK8CyOjDWph96YcDRd/XxOPY3N3FmjJZJkYanrHHYchV8zD0i9Uo/9j58E2YyORVhiX++DQ6n3yUgcgzDoD9poF1XQls7EqgzWTyioiyIm1pWNqfF4aqF30bghsYwkKkPuzzl95XU1OTt3OKmpoazXLkV3zaIJE7zZ27tEIgv2Ak8vAKofD5OTfcUJrJ92QC6xgcKPq+pbsbaxIJ7E6nuV0nG3FOp9H52EPYftWl2HH15Wj/zX2QdIqBySC7rRW7v8t6iPnEFEFzOoXV8U5sSyaRtPnEyH5icTCio7vn+cbKaHRNX18XCkXmQOR7jGBBu6yx8c0f5OvBNzU1f19BfYHNSORO/tL09wGMYyTy8uahoqKz+8JMviUTWBnSU/Q9hdfindieTKLb4WQyG1Lr12DPd7+J18/7CPbe8j2YbzYyKBmw53vfgt26n4HIA922je3JJF5LdKI5nYbFpPmx2skQEB2egrqnvi76876+LhwOz4bCSrDgbhF0EnVjKFRdlW+HHQpF5gjw32xAIncKh8OTFLCYkchrF2TyzZjAyrADRd/XJxJY35VAi2Hw5/1sxDneiba7V+CNS85FY/U8xJ9+EmDSsF86Hv0N4s/8noFw9bgiaDNNbOzqHVdMo2cJKB0zEfkHo0B0GAoNmiYL0cdRJxwOjxNojwMoYxCLpa+oX4ZCi0/No4nx6VC4C0ywErn3Pk1p3wXgYyTy+dogGb0uMIGVRd22je2pJFbHO9GUTsEQprIyP7N30P3i39D81evxxqUXoLV+Gey2NsblKFl7d2Pfj/6XgXCpt7YJJhLYmuxGgtsEM07TwZoKRIe86cRtne1tX4hGo30q9hmJRLwC7QEAY4ovZEgCaCnSHlMCOPfPnbu0wu0HGgqFhgq0X/ccMxG50YLFiysh4Pbe/Dc9k2/GKtgDkSToLfq+J51G0OPBKJ8PgzxeBibTk/3GHdh32y1o+eVtCJx7IQbPuQZlp5/FwByKCHbf9A3YnR2Mhct02zb2Ggb2myaES62yeApIbN729lcZCaL32K2grq+rXf5Qf15s23IzlDqjQGNjC7BFg1rtQF6Dkk1Qag8sfR+Qbo7V18cBYMGCBSVer3eCDUxQDiYAmASlTgEwG8DYgu05CtNKStLLAfdOOmtqarSdTbvuVZCJPNWJ3EuznBuYrygII2pqarSampqMrOZhhxjIyRJ6ir53Whb8mo4RXi9G+HzQFVcuZzTOhoH4008i/vSTKDlpFgbN+QIqPnUFtFLuYjhY269Xoev5PzMQrhkfBO2mhT1GmiutBsYGMfxfZhiI3qFLAXdYlvGDlStXtvfnDcLhRVcIpJCeOGgC8jcInnZ09cdEefnqhttuSx7pRStXrkwB2Nz77x0ikcgYEZktok5zgI8r4CMA9IKJmMLnQ6HqP8RitfVuPLympuZvKeCTPN2J3GvJkiWBtGEtZCQKgr59+3YfgIw8hY0JrBzpKfpuozmdwlCvDyP9PpRpOgOTYan1a5D67hrs++kPUXHRpRgybyF8U6YVfVzMpp1o+dkt7CBuaAtxsN8wsdc0YDjcZjwgBDt1XS6Zt2dPF4NBBAuQf4jS7rfSnnvvuuuX/X6iRyQSGWM7EkP+1xTqAvAbiHrQ79efu+OOOxKZfPNoNLoLwG97/9WEQqGhSnk+LoKLRMklChiZ971KU7dFIpFnotGoqx6UUVW16AyB3MTTnsjdDMOeAyDISBSGrq4uM1Pv1ecElmZbpqNYOitTDhR9bzENlOk6Rvl8GOr1QrGeZGbjnIij/Tf3of3BX6PsI2di8JxrELjgE1B6EeZwHQe7vvVfcLq72TFyqNvp2SbYahpwuEtwwAiwVfPIBV/Y1r6D0aAClxZgm1LYBaBJBEklKgk4KQAdSmn7beVsMrpL/n3PPbd3ZuIDbUEtgGH5GzL1sgKijmPeV9+7FXAgxGKxVgD3A7h/zpw5enDw4PMU1LUQfBb5WgRfUGGJWgHgQrjksSORSKTMdmQlCmm1G1Gh3q+JVBXSdFgBSQfYoSCNgGoWIK2U6oTj2KLUEAUMQs+/UQBmoLAK17c3NDRkbHtJn2fvoxo7djRNGJJWgJ+nVoYntLaNbckkGlMpDPf5MNLng4/JwkyPhuh+8W/ofvFv8IwchYpLP4Mh13wRnlGjiyYErSuWI/nKv9gXcnI/D3RaJvYYBjotiwEZeH8Rrzln7tbEXoaCCtAbUPiDEvVn28ZrEyeO2VxTUzNgA00oFAlD8Kk8jJsDoEHB+UFdXd3qXB9M703+MwCeue66675sWNYXRNRSBZyQfxM2OT8cXlRdV7c86objsQW3IMPFhPPAPgg2QSEBhTgc1a6UdDmAV4kqhyblSjDEAQYpheMhqABRjvWs5sWZeX7L/yqUelbg/Es5zit1sdhWHGUyPxKJeA3gBE3kZCXqLACXAMjnmn0ZXYnb5wTWeYB1d8+F9VM8vbLj4KLvFR4vRvl8qPBwt2fG47x3D1rrl6FtVQyB8z5eFEXfja1b0HLnz9n4A37TLNhvGtidNvg00hzdSIjgp+Ma2/77PICZQyok2yByj1Jyb11d3YZcHUQ4HB4nCj/Ns2dOWApyr+N4flBff+cmNx7gnXfe2QbgjpqammVNTbsucyBfV8ivSZ1Afrhw4cKHV6xYsS+XxxEOLz5XxLm+sK902K6UPOtAe0FXzgbHcTb2ru47alVVVWM1TTsB0E4UwdlQuADACA61NKD3zTYuh0K+reJwAPkLRN2jlPN4XV3dnv6+Ue+Tf9f0/rsHAEKhxTOhyacgMg/AzDyLzb8z+Wb9yoooR/ueaM4lAPe5Zfc6BHRYJjosEyW6huEeH4u+ZyPOpvlW0XffpCkYfPU8DPrMVdDKCqvou9gWdn3rq5B0mo0+QFK2g32mgX1mmtsEczeQ7nQ0Z+G1Ozv+yGBQoVDAKw7Uz+Mdrfdkcll+/08z7ef5tXJD/iaOdn2sPvpaPhxt75ObHgXwaFUkcrbm4H8FOCdPgj1U6d5bAFTl6gCWLl3q70qm71SFN29xBOoPUHhEOdYzsVjs9WN9w/r6+mYAzQD+COCXAFR1dfUpjoMLAfU5KHyEIzANgEvy6ILcKYJaJfbtsVgsa+UpYrFlawGsBXBLVdWiM6BJtQKuAlCeB/fiz2f4Hqh/7h4/9PtQ8m2eXwNLUwpDvV6M9LHoe1bjHAig4qLLMPiaL8I/7fiC+E4tv/gp9i//BRs362M0ELcs7DEMdFgmA5LDplBKrfTqcsNVb7R1MBz5KRwOny7QXmAk3rIJgq/GYtEn3HJAodCiy6DksTwZn/dCyY31tbW/ApDXPyuEQpFPQ+XNljjRlJxdW1v799yMI5H/EeB7BTQONELkXqVkeV1d3baB/OBIJHKCbcsCUWphQTxsoN89Wm6JxWq/MUAxn2I7eN01313h6VhtNGtP8aypqdEam5pbAAxxeS9IQanbdCW3RKPRnNxnXnfddUMMw1oKpb4E99afdHQN43ofXpIR/d6X9npj603TJgw+UaA+y/vJAewBImgxDLQYLPqe1TgnEj1F339zH0pOmoUh8xYiePFlUHm6lTO1YS1aY8vYsFlkQ9BmmNhjpJHk0wRzbY0Irp+3s/WvDAUVCAMiNbquftK7tcAVeoti354X802o33o0WRiN1rYUQoeIxaKPRCKRJxwH14nC912+Ak45ov0UPdsfZYD76BTbwTcLoc0F+JcSfDcWiz6JHCVgo9HoRgDfmDNnzneCg4bOVyLfhkIlh2jKlJ07d81SmsuTVwpPw7EjsbpYTh8I1LvN/HtLliy5NZ02F0Op/0JPEXg3xeqZTCavAPR/b2kN4Izd2f55QK3kqZYbB4q+vxaPoymdYm2dLEmtX4Nd3/xPvPHxM7Hvtltg7mrOrxsew8Dub34VwqLhWZF2HDSlU1gdj2N7KsnkVW51KFH/edzOtg/Ob2xj8ooKg8J6iHZ6LFb7QzclrwDAFvWfcH9h2TSU+saEcWOuiEajLYXUNaLRqFlXF/0/sa0TIXD5Kjg5vaq6+soB76MOfgSgJM+bejUEV9XXRT/Su/oy56sHGxoajPq65TFdx3SB+iKANzhYU0YuecqZ7ebriQK+HKuNXpTN7YJ9dccddyRisdqf+H2eqQJ8H0CXW45NQ+Z/5DrmZTsCqLsnDL1JQb4NPpY21ze5GKJ7MdLvQ1Bn0ffsnYk6Ah87F0PmLkTZR84EXF6TbO+Pvo+2VfVstwzr7N0m2GmZYHmrnDMU1J3KMv/3muZ4C8NROIp8C6EIUOvRcEM0Gu1228EtXrx4pGk5rwMIujiGTRDt8lhs2b+LoL+oUKh6IZS6FT2PYnejzbqGmQOViK2urj7TEfU88rf2VQtE/jMWq13l9gNdsGBBia57vwWlbgTgLYLRmVsIsyRUHbkVghtc2OqNCs5n6urqXnZ797x28eLjvLbzPQgWADkshi/4RywWPQMZTrprx96HIfN3ttaIJhcCeJO327kcTIE2y8Smri6s7YpjdzoNWzi1zjjHRuJPz6Kxeh62XXYBWuuXwe5od+WhJv/9EtruWck2y1TTo+dpguu6Etjc3YUOJq9cMOqhQRx7xtydrV9h8ooKJhMBvAlR59bXRRe5MXkFAJZlfxcuTl4pYI1je84skuQVAEgsVluvazgZkH+69BinO46aN2DXbMGPkK/JK4UGxzZPyofkFQCsXLkyFYvV/o+tYTYE/+AoTv0eyESd5MLDel3XcHY+JK8A4K5ly96M1UZDEO0MAK/m6DAMEfUfyMKK0Yxl5OZvb/+TzzBPBXA3T73cS9k925pei3diezKJbsdmULJxZu7Yhn233YKtF5yOXd/6KtKbNrjm2JxkN3Z/+78Abmk7ZqYImnu3CW5LJpG0eT7l+v4Goh7Wlcyet7PtqvlNna8zJFQ41F8ty3NaLLb8L249wqqq6yYLVNjFk/+nHcc6a8WKOxqLrfdEo9GdtmWeoyAxd05O5b/nzJmT9R0b4fCiKwB1Vh424T6IujhWG71qxYoV+/Lt4FdGo2s6O9vOUsB/A2DtCur78K1kvMsOqUXXcFE0Gt2Zb7GMxZb9c/y4sR+CyNcw0NsKBV+tr1/+UjbeOqNLyq7andg3b2fbfM2RcwFs5CnogiQGgBbTwPpEAuu7EmgxDDCdkYVzNJ1G52MPYfvnLsGOqy9H+2/ug6RTOT2mvT/6PoydO9g4x6DbtrE9mcRriU40p9OwuKIx56eaUvidgvOheY2tV35hR/u/GRIqqBt3SGz8uDHnr1x5x243H6emWd/EMTwIKMtBfKKzve2y+vr6eLH2o5UrV6bq6mrDoiTiuiSCwrTg4MGfz/7cKR+flK5etj3ah2Ox5b/P5/7X0NBg19VFb4aoCwDs4chOfTx5j3PXkKWui0ajW/M1nDU1NVYsVvsT26PNBOTJgWlDuSUWi/4ia/cg2XjTa5ra/2xqg05FT/adjy9302Q8lcTqeCeLvmdRav0a7PnuN7H1E2f3FH1vbhrwY+h64Xl0PHg/G6N/N71oM01s6OpN+poGuE8wxzcPChjq9WJmIKhmBwedNbti8Jc3z5p8ISNDhTX4yC11dbXVNTU1rl61sGDx4kqButad47d6qqzE/9mGhgaDHQqor62tVVBXwEUFfQFAifoGsri1LxRadBmA0/LrQodVncGyj65ctmx7ofS/WGz5XxSc07ilkI76+rJgQQncVcPv33V1y39TCLFduWzZ9lhd7acguArArix9jCjgO9muD5e1ol4Lt29PzdvZdrPPsScLcIsAaZ6W7mCJYHc6jTXx+Ft1fCjz7Nb9aK1fhjcuPgeN1fMQf/pJYAC2cjrxTuz+n6/1lP+lvp8XiTi2JrvRxW2CLrifVxjm9WFGeRCTS8tQomkAUAGo+Y44f9g4c+KajTMqv7Jp+vThjBblNZFv9t7wuX7g1iznv+HKIs3yp3iw7DO333477zcPUle3/ElNyXkC7HXRYc0MhRadn7WeoOR/8unsh5KvxGqj1zbcdluy8PpfXZNtG+cK1G95NtKRlJaWlrrs2vyLQotxLBZt0DWcCOBOIKMbs9oU1Ofq6qLfz/p9SLY/4Kqmztb5O9u+ocE5SSm1AtwP7aIrZs+T1LZ0d2NNIsGi79niOOh+8W9o/ur1bxd9b2/L2sft+d//gbVnN+N+lN6zMtHhOZBrulIY4/fj5GAAk0pLDySu3oeaCYXbxGe8uXHWxIYNMyo/Kfn7tCkq3ovxjbFY7Q/z4VAXLlw4QgPmu/DQtumamlOICYBMqK2t/Zeu5KMA3HNzoJyl2XjbcHjxuQr4UJ40jQ1BJFZb+/NC7n8rV65MTRg35jNQWMWzkQ4nnU67K4EF/Z+FGOdoNNoRq4sugWhnCPCvY53pQmGVONbMurrlDw3E8Q/YYxXn7ux4Y+6O1iqly1QBomAiy10DhmOz6PsAMHbueKvoe/NXr0fy1cw+zCLxx6fR+eRjDPQR54tAh2Vic3cXa8O5iFcpjPWXYFYgiOP8JfCqo75E+SDqc0rh95tnTty8cWbll187eVQ5I0ruH4zk1lgs+qN8OVzN41skgLsmGAqdmpLLotEon0J6GLW1tZttDZ8AsN8lDXdZVdV1kzN+Sinny3nSJLZAVcVi0bpi6H81NTVWZ3vbQrc+XIDcckks0d11PEZrIcc7Flv2z/q66IdFySUQ/A59y890KEjMsdWsWG302vr6+uaBOu4BL8A5d1v7DgCL7po46GZd9C8LpAoufgxzsTlQ9L3FNFCm6xjp9WGo1weNaxoyOyAaBuJPP4n400+i5KRZGDTnC6i49NPQSvo/L7DbWrH7u99kcA97tyjYbxrYnTZYA85FyjQdI/0+DPN6oY5xAZVATQXwM79TetOGGZW3l3hx26RXt7czyuS+CwF+19nZ/vV8OdxIJOJ1HFnssjWqokHm1tbWrmOHOrKV0eiahZHIJzQHf0Tu68xoSrOrAGSs2Ho4HJ4kgsvy4XZbQc2N1S0vqmKlDQ0NNoDqUDjiAfBFnpH0bn6/kzZdtMRFKd8oAM2FHvf62trfAfjdwoULR+i670IRnC0KJyjIBAABAJYACaWwVQRroOQvjmk+t3Llypw8sSxnT5C5dkfHNgBf+esJx93RZRq3dpr2Jw2Ih6eue3TbNrbbSbyZTmOYz4uRXh98msbAZFhq/RqkvrsG+269GYOu+CyGzF0A77gJfX6fPd/7FuzW/Qzo+8XYcbDPMLDPTIM7BN2jwuPBKJ8PgzxZKaczRCl8J23hS5tmVd5mOeW3zli3LsGokzvuirFe1/CF3gldXnAcdaVAjnNZHH9ZW1vL2jp9sCIafaW6uvpqR9RvkfsnSc6vqan5Tk1NTUZ+URKlL4GI7vY2EKW+EqtdXqxP2hFdQ7VtYyQULuYZSQeLx72pklIXlTHUnEUAFhfN9WHFin0A7uv951o5yUYIoG2eNfnCjTMrHxjh8a6tLC3/1KyKCs+0sjKU6zrPXpcxxXmruDWLvmdxchDvRNvdK/DGp857q+i72Ef3M0THIw2IP/N7BvGd48xbNd7WJuLYYzB55Y75Zk9h9pmBIKaXlWcreXWwwSL4rq51bdo0Y9K1bAFygd26wsXRaDSvntIscEIuG0zWdwbKv87u1He1tbVPQXCDCw5lQmPjrvMy8UY1NTUeiMzLg/D/v/ra5bcXc/+LRqOmruNzAvydZyMdbNq0YQkA7ploCkJVkcjZbBl3GdAE1qZTxh23YWZlzaZZlY2OOH8AMAe9T7JRAAZ5vDixPIATyssxxOuF4rY11yYEDhR9t1j0PfMOKvr+xic+iv13/hx226G3YFt7d2Pfj/8f49bLhqDFMLCOCVdX8SoNY/0lOOWIhdmzNoCNFSW/2jCz8qFtH6gczBahXA1RCs5V0Wh0Zz4ddCgUmgioC9x0pRRbfZFF2/svFov+AgrLcz8TkYxsJWtsbL4UwGg3x1xB3ROri/4Pex8QjUa7xTY/DWAHo0EH9K7G3OOiQ/IoB4+GQovPYuu4x4DMIDbMrDx348xJvxFb366AmyAYe7i/D+geTCktw8zyIEb6/Ky/5EIHir6vZtH3rLL27kbLHT97q+h794t/e9ekXLD7OzfC7uxgn+ztk2vicWxPJZFyWOPKDUp0DeNLegqzj/X74VG53YasgM+kLfxz3UkTZrB1aKAJ8OO6urq/5t1xK30BcrRq/xCW19cvf4k96tiUlfi/DIXXcnxSfHrBggUlGRjcq1we7teTSd+SnmGAgN7tSqJdBTetuCE3XHHcVnNqKJTzTCgU+XpNTQ3LHblA1m5GBFAbZky6bOPMyr8r4DlAPguoPjW6X9MwoaQEpwQqML6khPWXXOhA0ff1icTbT3PjpTnz55NpIv70k2isnoftV12K9t/cByfZjbZfr0LX3/5S1LFJ2Da2JruxtourAt0koOuYVtbzQ8Qo9/0QMU3XtOc2njzpeLYUDaB1jmV8Nx8PXAnmuuhwWiD2t9mdjt3tt9+edix1DYDuHB5G0OPxn38sbxCJRIYDrq6nZDgarr7nnts72eveKRZb9k8FfJeRoIOuOK+78KBKoHBLU1PzP6qrqz/ENsqtrGSENs6YdPmmmRNXKyWPATjjWN9PVwqjfH7MCgQwpbQMFR4mP92o27axPZXE6kQnGlMpGFwBkxXpDeuw57vfxNYLzkDLrTcXZQwcAPtNA+u6EtjYlUCbaYJ5KxfccvTWt5pRHsAJ5YGBqG91LEbAlse2TJ3qZ8vRQAzdCs41uXpiz7Goqlp0ChSmuWecwfdjsVgru1RmrFixfL0o9Y0cX9WvPJZXWyKfQe4L0h+a4BsrotFX2Nve37hxY38I4FlGgnrH+PXuPZXxQUfUi1XhSH1V1XWT2Vq5kdEE1oZZE2ZvnFn5HJQ8CqiZ2ZgcDfF6Mb2sHCeVBzDc5+P2QheyRLDHeLvoO5MLWbrdi3fCSRVX+Q9TBM29W1e3JZNI2ty66gZepWG034+Tg0FMKi1Fab48jENhuuO3lrAFaQDuer9TV1e3Oi8nE8r5nIsmNm9alhFlh8qseHvrHQBeyt3poS6vqanp95xEibrSxeF9IRaL/oy97NBqamoc26OFFcCadgRArXX5AWoKWKg0e2MotGjFwkjkg2yzAW6ATLzJtsrKko0zKm9Wov0DwLkDceBluo7KklLMCgQxzl8Cn+L2Qvfdr/cUfef2LjpW3baN7ckkXkt0opn9yDX8mv5Wfatx/hJ48/DJG6Iwhy1JWe5lf+vsbPtp3h69Up9zz7HID/JxFZvbNTQ02ArOYgC5+lVoRFNT06n9eeGCBQsGAzjfpaF1INpXwLpXR7Ry2bLtotSPGQnyeNQLeXLOeKFkgebg5VA48vdQqLoqEokMYgtm3zFnfbbMmHCSEcRLULgRwID/7H7gl/9ZwSCmlXF7oVu9VfQ90YntyW50c+UMHWmiAsH+g+urmQZvAV1AAajweDCtrAyzAgE31rfqYz/DTLYqZVEC4ixoaGjIy4teKBSaqoATXHI4rZ2BwAp2qeyoq6t7WUFW5nBK8vH+vErXfZcA8Lk0rPWx2LJ/sncdZVsquQXATkaiuC1btmwvgM15dthnQKmY7WB3OLzo/lB19eevvfb6YWzN7DimbM/GGRPPs5V6CILBbphUDfJ4McjjRbdjY69hoNVkQXG3cQRoMU20mCbKdB0jvT4M9XIrKL3Nlp7E1W7DYB01N91YQmGIz4tRPj9KC+iBGmnbLmfrUvbuTdSX6mKx1/P4zL/IPcFU9Q233cYtRlmkaep7toN5AAa8NqAD9XEAN/fjJPuES8PZ7vVo32KvOnrRaLS7qrr6a0rU/YxGsV875TmByscH7ZQI5CqIusrrM+1QOPJPKPWk2Pj9hAljXqmpqeHEJhPXqv6+cOOMCWdBqd8BuU9evVuZ1rO9kE8vdLd3F31PM1lR1NKOg8ZUCq8lOrGTDwFwDb+mYZy/BCcHg6gsKS2o5BUAdNpcDkrZIo/W1S3P7xVD7kkOiK2Bta+yn0DYCVGxHE1Yz1y6dKm/zy8DPu7Oc0f9X+9KEuqD+traBwC8ykgUN0fhsQL4GjqAMyDyfaXJv3Y2Ne8KVUfuqqpetHhhJPLBSCTiZUv3T79WYK2ZOWkUIA3IwS80feo1vU8vHOnzI25Z2GMY6LBMtrrLHCj6vtdII+jxYITXh8EeLxRXZRWFbrtnxeR+y2CxfxcJ6DpG+fwFfS46EOwx0rwoUFaGNojz5Xz+AnPmzPEBOM8dRyP/Wrk8uoXdakDuym4D9OvQkxwaSCXJZPJUAC8e7QvC4fAsAca6MIgp29TvZF/q59kOdZuC/IqRKF7lJSV/7E6m4wCChfKdFDASgvkKMl8JYAOpUDjyb4j6p2jOvxxN++fK5ctfBwumHFG/ElgewdehMCaPOgwqPB5UeDxI2Q72mgZaTAMOZ8suu2D1FH3vtCz4NQ0jvD4M93nhYYH+Am1rE83pNLq4AMY1NABDvD6M9vny50mCx6AplUba4UZzysp9x/frYrEd+fwdBg8efJojCLhkQvsb9qqBEYvFXg9VR/4AGfjVdyLaGehDAstR+jnKjffyCr9aufKO3exN/ZycanKf7eB/AYxnNIrT7bffng6FFj0IJQsK+GuWADgDSs5QoqDbglA4shNK3SNw/qWJ/Kuurq6JveF9xoh+TDzVJiXhvO0puoYJegnG+v1oMUzsM9PcuuZCacdBUzqFZiOFoV4fRnp9KCuCCXWhsyFoMUzsSadhCM87t/ApDSP9Pozw+qAXydLH/aaBvUaajU/Z8Hppqf+2/B+vtdOVS34I1pU8ym41cAQSVVADnsBSSp3ep7935Ey475Ll2Jr6KXtR/0WjUbOqetHPlAjjWMSUsusF2oIi+9oTIPLfCgoChVA4skugXtYgL4uolx3HeHHFihX7ir1v9DmBtX5G5SgdqMj7L64URvt9GOX3IW5Z2GcaaLNMLtpz212AAC2GgRbDeLvou88HrsnKL6YI9hlp7DEM2Fz56Bpluo6RPh+Ge7wopj27raaJbSnWgqYs3XRDffn222/P/+yoOGfAHdmB5tra2s3sWQN6j/w7R5AUoHRAuxzktD6+5HQXnjjPcrtrBu7/zXS97vH9AC4vV0PZU1dX93woHFkHYEYRh2GMglwqwKVQAk33IhSObIKoZwH5Qyrl/+M999zeWWxB6XMe4A0zNaGwbjR7thdOKS3DyeUVGOsvgYdF313praLv8U40pVnkO2/aLJnEa4lONKfTTF65Y3KNIV4vTigP4KTyAIZ7fUWVvNprpLEt1X3wjxWstkeZPMGerqtb/mSBjBVnuuRQ/sqONbCi0Wi3AM/k4KMrlyxZclTbViORyBgoVLotdqJwL3vQsVu5cmU7IL9nJIqaQPBjhuE9joeSJVB4uKQ03RoKL3opFKq+uaq6+sLe2pUFr88rsOKG2Zn2eOHXCm87l09TGOv3Y7Tfhw6zZ1VWp2XxNHEZSwS702nsMdKo0L0Y5fOhwuNhYFxztempb7XH4PnjJl6lMMznwyifH94ifEKCI8DOVBItpvF+XZYoI5Q4NxXC9wiHw6NcVBz7k6FwZCt714AbmoPP1JKWNQPAP470h7aND7rw54e0Y5qPsOtkakDFryG4goEoXrqOe20H3wUwkdF4/xABMhtKzVaCGysGDekIhxc95Sjn145p/m7lypWpQvzS/Zr170kbmFBaWrA9QetdoTDE6+15QpppoNU0wFK/7iICdFgmOiwTZZqOkX4/hnq80LieImcJghbLwJ60gbTDwuxucWCb4DCvF6pIFxt1Oza2JZNI8oEBlN2r0qN1dXUvFsI3cRztFBc9P2Vw7z8qhpyFo2biKBJYSmGW227LFdSTPSuHKCMzc6UeswUJwB0Pk6CBF41GzVCo+n+g1F2MxlEZJJCrlKirdI+vI1QdeQyOatB1+X00Gi2Yp2736/Zkn2kWzUSgTNdRWVKKUwIVqCwpRSm3F7p2gro92Y3XEp1oTKVYmH8A2RDsNdJYk+jEzmSSySt33ES/Z5tgUSavRLArncaGRBeTV5RtjjjaTYXyZTQNs9iklJPrl8IJR/mXM103CCjnQbZgRpMX3cJthEVv/Pjj7gHwEiPRZ4MgmA8lj9kO3gyFI3eEQos+hgIondGvbIxA8Hqyu6jq2ehKYbjPh5MCQUwvK8cQr5eVU1zIFsEeI421iTg2d3ehwzIZlCyxRNCcTmFNPI6dqRRM1rfKOa/SMNrvx6xAAFNKyxAo4id3dtk21nd34c10CsJdgpR9j9TXL3+tUL6MgAksyhFHJh3lXMR1fVQs71/YgJmlRP2ZUShuNTU1jqNhEQCD0ei3EQCug5I/h8KRjaFQ5IZQKDQ0X79Mv5cTpR0Hm7u7iq4oM4u+583NNzotC1u6u7EmkcDudBoWEywZkXYcNKZSWB3vKczOuOZemdazUnRWIIhx/hL4inhMshwH25Pd2NiVQDdXXdFAXXMc9ZMC+0rT2aqUmxttVXlUfwVMc9mRv7FixR2NbMDMsnUwgUVYEY2+ooBvMhIZur4r3KqU3hSqjsRCocUz8+0LHNMsp8u2saErAaNIi0MdKPp+cu9qBxYSd6e0Y6PpoJVCKZvbC/sjadvY2t2NtYk49hhpMIo5vscHMMjjxfSycpwUCGC4z1fU9d8EPasv13Ql0GKaXHNFA3k2/rW+fvkLBfalJrFdKUej+RH73oIFS0YJ4K5ivKK4+ioLVkajawHsZySori56KxSeYCQydd+MUgiqoJw1oXD186HQosvy5diP+Wf6lONgfXcCHUX8tLEDRd+nl5X31Jsp8omkWx2o1bS2K44t3V18Qt5R6klcdWFdVwJtFhMDuaYrhZE+P2YFg5hWxsQ5ALSZJtYmEmhMpYpuVTC54i6woB7zvWDBghIAo9iwlCNDlyxZctii3R6PUem+w3b+yqbL0ggr+BvDQABEiRMCwJWOGafOgpLHQqHIi+Hwoivg8kJJGdlnYjkOXmetEQAs+p4vOiwLm7u7sLYrjr1Gmk+YfB9J28b2ZBLruxJoY7Iv50p0DeNLSnBKoAITSkrgUxxbOi0L67sS2Jrs5oMbKFe2jR8/pqB+Efb5fJVglU/KIcMwRhz+L/SJrptQaXiFLZelqbXCvxkFAoC6uro94qjLAMQZjWycbPiIQB4JhSOrQ9XVn3frvUDGZkACYFc6jfVdXehi3ZH3LfqueDvoOinbwc5UCqsTnWhOp2BxEoxux8bWZDfWdSXQYhpccZXT60hPzb1pZWWYWR7EKJ+fqzvRk7ja0JXA5u4u1rminBKgrqampqAuHLatjmPLUk7PK/EcNoHlKBznvvPG3sqWyw5HyRZGgQ6or1/+mii5GgBvALNnJkTdFwov+ldVVeQ8tx1cxn/CT9o2NnYlsDOV5FYOvLPo+ywWfXetnifqpfFaIoHtySSSRTgpPrDiakMigTaTT2/MJR3vTIAP8ngZFADtlokNXV3Y3M0fSsgdlw441sqCu29RGM6mpZxOTjR75GH/QGSEyw55V319PVeEZIko9TqjQAerr639HQTXA/ydPctn32yl4Y+hcOSxqqrrJrvmGpGVrwpgr2FgdSKOPYYBh30LAIu+58VpCkGLaWBdV6Jo6mR19RZn54qr3PNrGsb5SzArGOQW5LfmKUCraWJ9IoHXu7vRZXM7K7mDgnq8vr6+uQDPOiawKKccB0MOe+6JGuay0YAJliyyU17Gl94jFosuFyWLwCTWQLhM0+y14XCkJhKJ5PxX9azOjmwRNKaSWJdIoJVPhToo6Cz6ng8O1Mla15VAi2EUXH23DsvCxu4ubOgtzk65E9B1TCnt2SY42u+Hh/uN4QiwzzCwtiuON5Ld6Ha44opc1keVU1ugX20EW5dy60hFHmWoqw5XwO2DWXTXXb/cD6CNkaB3q6+trYWSGxiJgRjmUCrATY6DF0OhxTNzeSwD8vN+2nHwRrIb6xNx7DcNcGfh21j03f2Sto3tqSRWx+PYnU7DyuMO7AjQYppvrTBLsDh7TgffYV4fZpQHcEJ5gHXyeh14WuiaRCd2pJIszk5u1Rhvb3+6QL/bIDYv5XSipMlhb05EqSEuu6C3sNWyPntmjOl9xWprfy5KFgLgr/EDcirig1DOv0LV1V/O5Rxq4BIBjoNtySTWd8XRappgJuttLPrufqYImtIprInHsTOVQiqPJtYpx0Fjb7H67cnuoqzx5RZepTDWX4KTgxWYVFqKUl1nUAAYjoOmdBKv9Z5fJq8P5Oo7OKlraGgo0IFUStjAlEvKUV351EdFJMFWy3anQBeDQIdSX1u7UlPCpxMOnBKI+lkoHPn13LlLKwb6w3Oy3CfZuyLrtUQczekUi72/Y3x+u+j7zPIgRvu4nchtDqwQWZuIY1NXF1pN05V13iwRtJgmNnZ3YW0ijj1Gfq8ey3dB3YOpZWU4OVCBsdwm+JZup+fhAWsSCexOG3DYR8n9RClZVbBfTjQmsCjXd1prj3Cv7HPT0WoAE1hZH5gYYzq82trapzQlH4NgO6MxYK4uKU3/LRQKTRzgMTd3zLee/BbH9lQSKZtbRQ7m1zSMKynBycEgi767VNy28EayG6vjcWxPdqPTsnK6sNARQZtlYWt3F1bHe1ZbcZtg7qjeencnlAdwfHk5Bnu4srLnPhTosExs7u7C+sSBhwdILg+HqC9d5u91dXXbCvj7MYFFudQai8W2HuHi6qpH8zpKcXXQANxyMwR0JLW1ta/qOj4AwYOMxoCZCaW/WF1d/aGB+kBXZEQcEbQYBvYbBio8Xozx+xHgtpq3HCj6PsTrRbdtY69poNU04HDa5RoHVju1mCa8SkOF14NBugcVHk/WV9qkHAcdlokOy0Lcsguu2Hw+8iqFET4/Rnq98LCu3TvG+lbTxG4jnVdbcIneOXdW9xXy9xMlHgVm2ilnJ9gLOPIPC65KYCnHYQIr++NSF8clOhrRaLQDwJxQ9aKvQ+T7bhsvCtRoR9SfqqqrP1dfW/u7bH+Yq2ZWB36V39iVwPquBPabButkvQuLvrufKQ72GwbeSHbj1UQnNnR1YWcqhf2mgZTjHFOCyRRBp21ht5HG68luvJqIY20ijsZUqmf1F5NXuT8/S0txcjDYs02Q5+db/bY5ncLqA6ttmbyi/GUBzm8KO3+gDDYz5WwuIPj7UUwYXHUREaX52HJZH5f8jAL15bSM1S6/BaJ9EFAvMxwDMw1Soh4JhSKfyvYHuXZPWrdtY1syiWYtjRFeH4b7fKwZc5ADRd+H+XyIWxb2mQbaLZP5PtcNn0CXbaHLtg6+CMOnaSjRFLxKQVcaPErBoxQE8tbKOgc9yTBLBKbjIOk4rBfnzpsqDPZ6MMrHlaPvGccdG3sNA62GAaasqEAG9efq6ur2FPigluJvIZQjtkfD/UfuojDc1EWVcgJsuqyPvUFwBRb1USy2bG0kEjnDtuW/odQ3ATARml0+pdBQVV19eX1t7TPZ+hDXF1VKOw6a0insNtIY7vVhpN8Hn+KqhoMu4qjw9GxVSzsO9pkGWgwTlnC66NpLMARpx0aaTZTXPJqG4V4vRnp98HGl1UH9u2cl7Z60gbjN+mtUaNdcbW/Bf0lHpaCYwaJcnF/qwWh0+dYjX2eU4a7yhVqQrTcQMea4RH0XjUZNAN+LRCL32DZuhcLljEpW5wGlStSj1dXV59bW1v4rK6NBvgTDEsFuI4018Tg2d3ehwzLZQ97Fr2kY5y/BycEAi74TZUmZ1rON9+TyIMb5S5i8OjDnhWC/aWB9Io7Xu7uZvCLK15tPJUlGgXJzq69uPspe6q5trg5XYA3AyMQY0zGJRqNbY7HoFeLgkwpYw4hkd7rkiHqkqqpqbDbePO9mXgKg07Kwpbsba7vi2GukWcz8PY3aU/R9elk5TioPYLjPB42rbon6TQEY5Ok9pwI8p9414+ipbxWPY1syiSTrWxHlu1aGgHJwna2JxZb9++jmAqrTVXMTpYawBbM+/2OMKSPq66NP19VFT4HgKgCbGJGsGatpnscjkUhZpt84r5cOpGwHO1MprE50oimdRJoTp/dg0Xei/tOhMNLnx6xAENPKuKrxYN22je3JJF6Lx9GcTsNifTaiAskkyD4GgQaSQP2xo6Pt5qPvomhx1SkDTGErZk9VVVVQASMZCcrksBOLRRs6O9pmQORaBbzCkGRjbMcHbcHtmX7fgpiNWSLYnTawJ20g6PFglM+HQR4+MfMdE/H3KfreZpncTk70PvyajpE+L0Z4/Vxp9c4LETotE3sMA50WtwgSFagWhoAGjMJzsM1PNzQ02Ed9LVKy32WX5ulsyOzRNG06pyuUDb3jzioAq8Lh8EcdqC8pqCsAMJGQuclDVXV19cO1tbW/zdiYUHiTq57thWsSCexOp/nUtvfcJ/QUfZ9SWoaTyysw1l8CD1dlEQG958a0sjLMCgQwysfk1QG2CPb21iDc0t3N5BVRQd8oKK7AogG6b5f7ykr8F9fX18f71EVF9rvsq4zLxjYZOkBngpCyrq6u7q/1dbVzfF59lIJaBGA1o5KpeYSKLVy4cESm3q9g98OkHRtNaRu70mkM8Xkx2udHCRM17+DTFMb6/Rjt96HD7FmVxYkpFRtNKQz1ejHK5+cW23dJ2T1PNt1nstYgUbFwNK1JZ0kGyq5dEHy5Plbb0J8Xi4ZdLntQpnIcZyonvNkh4kyD4i+KNDDuvPPONgBRANGqqkWnQZPPKsFnoTCN0ennAAmMVLr3ZwDmZuL9Cr6giw1Bi2GgxTAQ0Hu2Fw72eDkOHjyB7y36PsTrRbdtY69poNU0OGGlgubXNIzw+jDC54POAeHtG0UAccvCHsPg016JilDX/v2NFYOGmOAWCsr8BWaLUljuOFa0r6uu3nlzr3a4bQ+Jo9QHwQRWtma/H2QQKBfq65e/BOAlAP9dXV09Q0TNEahLAZnN6PTZNVWRyJ310ejzx/pGRVWROGFbSCSttyauw30+eDhxfYcyXUelXorx/hK0mSb2GGk+VYwKSkDXMcrnxxCPB8xkHzQfgKDNMLHbSCPFc56oaDU0NNihcKQRwGRGg45RWoCXAbygRP0uFlv+R2Sg+qqmOdvFZRks5WjnAFjJJs+smpoarbGp+WxGgnKttrZ2HYB1AGoikcgJtqgrIM4FCupsAUoZoaMYJ238BMAZx3odKMpHaqUdB03pFJqNFIZ5fRjp9aFU19mrDnKg6Ptwnw+dLPpO+T5gomeb4Ggfz/V3S9kO9poG9hsGbJ7gRARAoLYriLsSWEp9D46sZeu4/oobB1SriGqJx1uaGhoajEx/wrhx4xobm5otV81jlJzDts+8N99882RADWMkyE2i0ehGABsB3LJ06VJ/MmmeIWJfAKUuAPAhFGmO5SgmZB+pqq7+dH1t7cPH8jZFHVxHgH2GgX2GgTJdx0ivD0N9PrAKzjtVeDyo8HhgirwVL1O4QoPcz6sURvj8GOnzwqN4Zh8sYdvYY6TRbpngsy6I6B33mErWQ3C+y27aumKxaANbh2pqaqxQKLLNZTVpJoVCoYmxWGwHWyiDpz3AxCC52u23354G8Kfef/9TVVUV1HX9HEfU6Qr4iPQktAYxUr33F6K+CYAJrEzotm1st5NoSqcw3OfDSJ8PPk5435MMGOv3Y4zfh3YWfScXK9N1jPT5MMzrhQK3CR50I4g208Buw0DSthkQIjrUDeYacduKzJ4VLj9i6xAAKKXWCsRlRZW1CwDUs3UySNQFDALlk976fr/t/YeamhqtqanpeBHtw1D4SG9SaxaKt87kaVVVkU/U10ef7u8bMIH1LpYIdqfT2JNOI+jpKfo+yMM6pu+4aTi46LtjY6/Bou/kjn452OvBKJ8fAW4TfIee1ZNp7DEM2FxuRURH4DhY477f8NRHly5d6u/9tZuKvY9C1irgM246JlHaVWACK2Ouu+66IYZpf4KRoHxWU1PjANjQ++9XBy5okUjkeMtRH1ZKPgSRDwPqVBRLUktTSwEwgZXxixCATstCp2XBr+kY4fXyaWXvo0zTUVlSivElJSwATTnhVRqG+bwY6fXBp3HV5MEObBNk/Toi6ouSEn1N2rAcwFVVFYKpVOpcAE+xhUgJ1rhtgbWCXBgOh0fV1dXtYQsdu7RlfU5B+RkJKsRUw0F1tO4CgEgkUmaJnKlEnQvBOVD4MABfQY7fkIsXLlwyfsWKOxr783omsI5mAHVsNKVtNKdTGOr1YaTfhzKNKzwOpuPtou8J28Ieg0XfKbvKtJ5tgkO9PmjMK7/FgfQ8QTRtoNvhNkEi6rs77rgjEaqObITgJFeNb452OZjAIgC6jlds9/1eqgPa1QD+jy2UiSm+9nlOJKhYRKPRbgDP9P5DVVVVELp+oXK0i6HkYgDjCmkIV7pVBeC7/Xkxlyv0aWIItJgG1icSWN+VQIthgGuN3iugezCltAynBCowzl/CVTGUMQrAII8X08vKcVIggOE+Jq8OMEXQnE5hdTyBbckkk1dEdGzjrcgLLjyoz8yZM4e/IBKi0ehWAK5b6SSCa9g6x+7axYuPU5BzGQkqVvX19fH62tqHY7HlkVhddLyCc5oANwPYWhD3GApX9fe1zCz0U7dtY3sqidXxTjSlUzD4VL738CqF0X4/ZgUCmFJahgoPF/xR/+hKYaTPj1nBIKaVsS+9ZyxKJrE6HkdzOg2LYxERZWYi/ncXHtaYioqhH2frUM8MCC5MsuIjVVWLzmDjHBuP5fwH56lEb6urq3u5vi7637G66FRHw2yI+jmAlvy9ycBJ4XD4xP68lAPDMTpQ9H1NPI7N3V3osEwG5T3X8p6i7wdWzYzgli86SqWahsqSUpwSqMCEkhI+GfStMb9nm+DGrt7VoKYB4TL7/jIYAqL30nX1d1cemJIFbB0CADguTGABUJr8Fxun/+bOXVqhgMWMBNH7WxGNvhKLLf9KZ0fbcaLkcwCezc9vol3Rr1exC2RqQtlT9H1LdzfWJBLYnU7zaV/vo0zTMbG0FKcEK1BZUopSPi2O3kdA1zGtrAwzAkFuEzyIKU5PwjyRwNZkNxI2twlmYPR+nTEgeq9oNLoJQLMLD+3T4XB4FFuIHB1/dumhfbq6uno6W6h//KXpRQAGMxJEh9fQ0GDU19Y+GKuLXqjgnAJRKwHkzWoaUTivP69jAisLeoq+p/BavBPbWYvmfR0o+j6jPIATyssxxOsFmKQoagdW6p1YHsAJ5QEM8ngZlF7dTs+W5TWJeM+WZT7pM4NXT+1pBoHo/c8OiHLj+eEXpS9h81Cire0lAK0uPDTNEfU1tlDfLV261K+ArzASRH1TV1e3OhZbvhBiTxMgCsD9CQjB2XPmzOnzkxaZwMoiFn0/Oiz6Xtx09Na36q2VVs5Veb1jOtBhmdjc3YX1id7xg4s6My0lmnYHw0B0yGm4O5/4J/If8+fPL2cDFbeGhgZbQT3j0sNbsCASmcVW6pvulPEVAGMZCaL+icViO+rroosUnI8A+LfLD7csGBx6cp9vTdjMAzQgs+j7EbHoe3HxaxrGl5TglGBvfSsmLgEAtgj2Gj119bZ0d6PTshiU7M2Cvz5/R8suxoHo/Zlp3x/gzl9xh/p8pRG2EIm4NMkKeDRH/YwtdPQWLFgyGpBvMhJEx66uru7l8ePGflgB/w0g7doD1XBK319CA4pF34/s4KLvM8oDGOHzQVPcX1goAroHU8rKMDMQxCifn/WteqVsB42pFF5LdGJniknu7M961ENzd7b/goEgOrS77vrlfkD+6tKbhW/Onbu0gq1U5PeMSp6AS7fKKMj5VdXVn2UrHR2Px/4JBDyniTKkpqbGqquL3gzRTgOwwY3HqMFhAitv5k54u+j72q44i74fQqmuY2JJKU4JBnuKvnOVTn7eYAIY5PHihAM1zzxeljx7n3Fgj5HmNsGB8bSpV8xV4KMbiY48fqvfuPTQhvtL03zaW5Grq6vb49okKwAl6lZudz2ycDj8UYFcw0gQZV4stmytruEMQP7kwrnQlL6+ps/ZAMeUBLtBZqVsp6foeyKO7SkWfX8/bxV9DwQxvayn6DsXZeVHu430+TErGMS0sjIEWN8KAGBD0GIYWJfgSsyBv1Kqh01t0BULt29PMRhER2ZZngfh2hUu+HokEjmBrVTcXJxkBYAJvpLS/2MrHVokEhkk0H4FPs6JKGui0WhHKllyBYCtLhu/x/f1NX1OYM19s/VNAB3sBpnnSM+kdn0igU3dXWg1TQgXCLxHhaen6PvM8iBG+/3QmclyHa9SGOsvwcnBYE99K8WVc0BPsnpnMonX4j3J6hSfJjiQREFq5ja2fpbJK6Kjt3LlHbsV8LxLD89vO3InJ77FTdPwENz8xC1BVTi86AtsqUPMfxwVBTCJkSDKrnvuub1TlLvqzAlwXF9f0+cq2QqQuxXugYCPMM6iuGUhblnwpHpWHo30+ZgEePddq6ZhnL8EY30l2G8a2GsaSNpcvZZL5boHo3w+DPV4wCVyb0vYNvYYabRbJrhTOBfUXg0SvmZn++NzGQyi/pxDvwLkHJce27lV1YsW1dcuX8Z2Kk7RaHRXVXjRMwrySbceo0Ci1dXVL9fW1m5mi72tqrq6WkSuYiToaNTU1Gg7d+76oFLOudDUySKYohQGQ1CigHYR7IGGjUrU3w3D81xPHUc6WH1tbUM4HPm2AG55Suqgvr6gfxkRS/0QQJxdIPsOLvrOJ5IdohMrYITPhxnlAZxUHsAwr4+/xQ6wgK5jWlkZTiwvx1Cvl8krAA6A/aaBtYk4NnYl0GYyeZUjjzpeY9Y1O9seZyiI+ied7n7Azfd9SuS2cDg8my1VvJRIzO23SiLqviVLlgTYWj2qqhadpoRPaqQjW7x48chQqPr7jU3N25Qm/4JSP4ZgvgLOhOAkAJMF+CAULobgBoE0eH3mrlA48lg4vOjjjOA7iCg846Lj0ZcuXerv09y/P58y783WJhG5FiyAO3A9DUCHZWJzdxeLvh9Gma5jUmkpTglUYKy/BB4Wfc/ezSIOLswewCCPl0EBYIqgOZ3Ca/FObEtym2DOxkyFfYAsmLez7dPXbk3sZUSI+m/VqlVdCvKAiw+xRKA9eO211w9jaxWnzs62RwHsc/m9/AdThv1oXydrhSgSiUxRmvwWQBl7Lx3KggULSkLVi75rWs42KPVtABP68HIvgMsE8nRVOPK3UGjxqYxo7xxO0Oam40mn0yV9+ft+z+7nN7Y/okR9FUxiDTgWfT+KEUspjPX7cXIggCmlLB6e0UEPCsO8PQX1WZj9bd22je3JJF5LdKKZCeZcckThTk2c4+ftbP8Vw0GUGbamal1+iBO9PuvhSCTCCXERamhoMBRwj/vvoeT8ZNKIoYj3CoTD4VG2g6cAjGLPpUMJhRbP1D2+VyHyHRxjolMBZ0I5/wqHI/9TU1PD1Q2QsS47oD49zeqYGnBuY+ttIhICwH1tOZmlvV30fX1XAvtNg0Xf39PBFYZ4e1YJnVgewFCvF4r7C/sXSwWM8vlxcjCISaWlKOHqNjgQ7DffPgdbTIMp/dz6m4Lz4fk72pbM3dnRxnAQZc6KaPQfgHrR5TflH3UccIVLsd6naPgF3FzM/UAvhcwNhyO3FmMbLViwYLBAfwLAFPZYOpSq6uqLoZwXARyfwbfVBfhe45vNj1133XVDijm+AjXNTYczduzYPj1c6ZhnoPMb21cAzkUAdvN0y51u28a2ZBKr43E0p9MwHM6i361c1zG5tAwnB4MY6/fDy6L4RzdIKGC0z49ZgSDGl5TAy/pWMEXwZjqF1YkEtiW5CtIFNkHJlfN2tp09d2fHywwHUZYo5+fuvzHHhd2p9K/nzJnjY4MVl2g0uhUKeVHvUICvhMPVdxbTapBQKDRU93ifAoT16uiQwuFFlyhRjwAoz9LJ9ynDtF+qrq7+QDHGd+7cpRUAznLRISVramr6VG/Fk4lPnbez49m7pgRO0UzvXQA+yVMvtxPr5nQKu9IpVHi8GOXzocLjYWAO0rO9sARj/H7sN03sMfj0wvejKWC4148xfj+TVr26bRt7DQP7TZOrHd1hlxJ8f2xjW+15XAlMlHW6Ug/agiYA41yeHfh0xeAh98+ZM+fqhoYGgy13eJFIxAtggikyTnO0CkB00dHiAVps294bi8Va8+bLOOo2KPl0PhyqQC1ubGquqKmp+WJNTU1BX8MWLFgyWinraRc9+YxcKBRaPFPg/BpAtn+AmCyi/h4KRa6LxaJFVW7CX2aEIShx0SHt6esLMpbZuHZrYq8AF989YfB8BfVTAMN5GubyothT9L3DMlGiaxju8WGEzwediYi3KCgM9/ow3OtDp2Vht5HmUx4BaEphlM+HUT4fPFylBoGg3bSwx0gjwUSnK3iVhtE+nwz3+V/XlYqXjyv34oUmnrxEWRaNRs1QKHIrFNy//YlJrCNNFD8syvmMgjrXduRUAH4NClA9P84op3cvntIRCkd2A/i7gvqtZaUfXrlyZbtbv1cstvwvoVDkH1D4SJ40xTWNTc0lc264YV7DbbclC7GvLVi0aJpuW08JMIlnHh3KkiVLAmnDehBAcIDmyqVQWBkKRS7SdSyNRqMthT/uh4aKyI0uu1g393mumtmEAGT+zva7HK85A8DdYDUYV3ir6Hu8E9u53el9VXg8mF5WjlmBAEb6/NCKMM+nKWBk73mZYeUAAD8LSURBVFbB4/wlRZ+8shwHu9NprEkksDXZzeSVC/g0DRNKSzErGMAov1/pCh8FZFVX3LNr48zKOzbMmsBtCURZputYjn78Ypqb+2J8etCgIU9EIhH+qIqelVahUGRRKBxZC+X8QwHfAOR0AEeqGTYawJUCqdc9vqZQdeT2hQsXjnDr91RKfS/PmubKikTXC5FIpODqQoXDiy7RbfkHmLyiI0in7VsBTB/4AQOftx2sDYcXXVnwQVb67QoY6bKDaurznDUbh3Ht1sTeeTvb5kNTZwrwPE9Jd3AAtBxccNow4DAs7+DXdEwoKcGsQBBj/SVFUSdLh8Jovx8nB4KYwBpX6HZsbE8lsborjqZ0CobDsyT356WGypLSngSz1wftvQ9iGATgOiXaSxtnTnpp04xJ1740e7aXkSPKvGg02q2AH+fL8Qpwoe3gpXA4XNQJ7nB40cdtB2uhsAzAjGN4q3II/kPTvZurqqs/48bvWle3/ElA/plXDSQ4xRa84taY9mdWGqpedKNAHgdQ1AWz6ciqqhadBiWhHB7CKIE8GApF7luwYMnowrwGRK4HcI37xj5Z39eXZHV2Pm9764vzd7Z9FEquBLCJp6eLJul27yQ93tkzSRdO0g/mVRrG+v2YFQxiYoE+cc+rFMaVlODkYBDjinzF1YEtt5u7u7A+0Zvc5frRnCvrffDCzPIghvt8R/kEUZktSn4VSO9/fePMyi9tq6wsYSSJMiudTi5DvqzC6jFRoD1fFV4UKra2mjNnjl4VjvxEIE8hs6sbBitRD4ZCkbA7L+x5twoLEFQoUb8JhapvnnPDDaX5O1EOjwuFI09C5OZszzWpQGi4yRV9ReHzusd6PRyO1CxYsKBg7h9DocinBfiZK4c9DWv63l0GwLwd7Q+/vrPtJAV1FZjIchVLpGebVDyOzd1d6LBMBuVdJ8gIrw8zA0FMKytHUM//gviluo7K3qcxjvb5i7oumg3BXiONNYk4tnR3swaaSwR0HdPKynBSeQBDvV70s4tOAPDzdACvb5ox8XquyCLKnFWrVnVBcFOeHXaJgtSFwtVPhEKhicXQTkuXLvVXDB5ynwK+CiAbF3sFhWWh0KIL3PbdY7HoEwCezctbT6VurIh3rQ2HF308z45dhcOLIqK0dQAu4khJRyMSiUxRkE+56JDKBbhJ130bqqqrr8rS2DlgQqHIHCjcjwzWPs/sZMzzWn/m5wOiBnDm7mxt8O1sm6Eg12rADp6y7iEAOi0LW7q7sSaRwO50GrZwCcrBBnk8OL68HCeWl/dMqvNoPFNQGOr14viycswoD2B4nh1/pqUdG42pnrpwO1PcJuiKPqqAoV4vTioP4ITyAAZ5MpZvOk6U+kUgvX/d+pmTPs5IE2XG+PFjYwDW5eFocwmUvrYqHPnKnDlz9EJtn4WRyEe6k+mXIJiT5Y/SoeS+hQuXjHffvY9zI5C31TImC+SpUGjRinA4PMrtB7sgEpkVCkX+IpDlEFRwhKSj5Tj4PNyYJFKoVKLuD4UX/T0UWnQZ8iyRVVNT4wmHI1+Fwn3I/lMd+6u5vv7ON/r6ogFdqrdl6tSKU2ZMXHzaoME3nloxaOK0sjJUeDw8c104uWfR90Mr1z2YXFqGk4MBjPOXwO/i7YWlut67TTCAyaVlCBb5+XZwknaPkeY2QRfQlMJwnw8zyoOYXFqGMj1r88lpGuSpjTMn1jaeMa6UkSc65ptjS0F9PU8PP6CA2wYNGvLPqurqiwupXSKRSFkoVP1TzcHfAMwcoI8doev2z90Wi7q6upcB3JvHzamgZIFA21EVjiyPRCJjXNjfTghVR+7SHfwbCmdzZKS+EojLx2A5HUoeC4Ujr4aqqz+fDz98VFdXf7KxqflVAX4CwM3H+9f+vGhAZrPrT54yU3Ps622Y8wAVgPSkMAd5vBjk8aLbsbEnbaDVNCF8cKFrHCj63mIaKNN1jPT6MNTrK8on9L0fr9Iw2u/HKL8fCdvCftNEm2n+//buOz6us8wb/u86Z84ZdVuyLTnGLY0E0ii7y0vZhRR46N2GdNuS5SQQ6u4C78MuYtl3WRZIiEMSazSSnThxwN4NZYFQsgQeNoT9QCgpTk9cZMeSrD6a0Wn39f4xcuzkCUksS5ozc37fzyd/xZpy3afd19zXdZd85ZprWWhKOVjgOKi2bR7HqhgKAvT5HgpcaRWj80ewyE2jxXXnsoxVAGmbGE+96sFXrPzAy/64axdHguhYEgSdP2pd3/5DKN5Rjp9fgVeJyo9a29bfJbA/n81u+kW5jsWqVavc+vlN6yKjn4XIirmPpb5v7fr1b9zc1fXLOMVFYD6nsN4DoL6MT7W0AO2RwYVtbe3Xq0bXdXd3l7SSZd26DWeJpX8bGZwf8wkyxVixz5T8ZZl83DOhcmtDQ+M/rVu/4Vox4S3d3d1DcbrctbVteJtCP28Ury2HgArk59P5u1lNYO08c8WrLCOfhYk+ODVxeM5/V2PZOL66GkurqjDg++jzWb4WN/kowq6ogH2ehwWug2bHhWuxL+PUjBj1dgr1dgorqqowGkYYDQOMBuGcNMcXFJtdz085mOekUGPxOQIAPGMwEPgY8H1eT2KkxrbR7LpYUNoy1ldJiP/z2Oknvv6k+x/fy1Ehmr7Itj5qh+ZsADVlfCd/vcLcua5tw88tYOPo6NAPduzYURbLz9esWVNl224bBH8P1ZKW8VnFxulvjFN8stlsb2tr+xcguKoCTrdaBf4OYn+6tW393QLrJs/L37J169aJuXjz9vb2ecbIhxTmEkBfz6sfHfOVV9InAOqW14fGyaK6EWJ/tXV9+/dhZOuyZcfd3tHRUZJGuofOS0A/qtAzyiiSJgzt70/nD2clgfXg6SteJ5B/gTm6m5gjgiXpNBa7LoaCAAcCD5MRV0zESaAGBzwPfZ6H+lQKLa47k71qyv9CDMH8VArzUymgCpg0BmNRiIkwQi6K4M1AOaYlglrbRp1to9ZOod62E92I/dlyUYQ+38NwGIALOuNyXgANKQctrhunsvFlgUTfu/NN+KuzfwF27yeapi2bNu1qXb/hn6Z2HCvza5Weo8A5DfMa97e2rt8qot/MZrO9cfys69evP80YXKwiawE0x+Rj/c26dZef0tNzQ6w2bBobG944b17jRQq8qkJOO6uYdNXXu+nqr7S2tf8Eijsix7pjy6ZNu2byjVpbLztdxZwngvMig3MBrQL4zEkzdCBbWF7GHz8NxSqIrtrbu3/3urb2f4foj2urqn517bXXerP5xldccUWdFwTvFLVWR0bfVjwvy43evWXL9Qem85czOpN44LQTT7Kt8MtQ+QCO4ep2qCfKAtfFWBjgKc9DLmIfplgdcij2ExoLQ6QtG4scBwtdFykmUp6hyrJQZbnAVI4vVIVnDDxjMGkMfDWIjCKCIjxilZAFwBYLKUvgiMAVQZVlo8q24ApXvj2bgWI4CHDA91HgtSI+DyZS3DxgsZtGVQxXbIrilYsHV7YCuzo5WkTTZ4teFSk+DOAVFfKVlkDkMwr55Lq2DT+1gNt8P/X9m266brCUl6x16zacKWLeDksuMoqX//nahhJ+SCu6GMDn4/SZduzYEa1bt2GDWHo34roT1/TNB/AhCD5khwatbe2PQXA3jD4oYj1sWboTwOOZTOZ5txlvb2+viSLrFFjRKYD1MlGcqtC/BsxxcujBn2jmZ5T1FfJFVgjwaah8Ol/wcq1t6/8LKrcD1l22bR5+ofPvhaxbt67esqxXANabAJzr+eFrAXHLufWSQG6d7t/OyEVcAevh01deCURfgUp65r7Y4T5ZuShCnzeJkSgEq4Hipdj0PcJ+bxJNjovmtMsytj93wokgZduoZW+qGRGoYsD30O8HCJWrNePCtSw0uy4WOvFPaovBhQCYwCI6BplMJljT3n6JbfBbAOkK+mquQN+pwDsdNwjb2tp/YUS+b8P8amRk5L7ZLjNsbW1dAdivF9H/pZC3ALoYkLgnE/4XYpbAAoCens7frWtr/7IA/1Dhp+NJUJwEESgUhwpZWtvaJwCMA8gBMgqoDaABwDwAdZFBGmIAFYAdiYmORR0g74HgPYBBZOC3trU/BOB+Ae4D5ElA+lQxqiqjU3/jWFZQp2rXWpZpUJUVKlguKisVehaAk3WON9+bZZOOY097g41jTmDtfNnxKx62dRuA183qkWDbqKupnZqw+uj3fU5YY4ZN32mu5KMI/b6PQW78ECs1lo3mdMn7Wx0dwZkcOaJjtyWTua+1tf0fIfhKhX7FlALniep5BoKGeY3jrW3rf6OQuyzIfcbgcSB4oqenZ/xoXrS9vd2JomiJ2vYyiXAioGeqWK8Q6CsBNAKAllfJ1hmrVq1yd+zY4cftgy1fuuSf9vTuf6sAf5nAU7R26j9wORXF6CFsPAHHowvgTABn6tPnX3FHuyN/41VYgCiMytOnaQXPcW674YYbhqd9Mz6Wd37o9OPPBMwPAVk6V9/26T5ZaRejQYgDvocJlgzFMsGwKyqg15vEAsdFs+sizabvdAwUipEgRJ/PkuJYPXoAZd0PzzOmnqNINDPGxoa/3tDQ+C4I3pCAr1sPyJsFeLNCUazuT2FdW3u/BfQayIhAfQjGocgDsCFIq0qDQFMCNCqwODJYDLEtMVMXVAikvCct6YaGBacB+EPcPlhHR0e4du2GNZatv1OgmmcsUWlZltn7dMKGEsNY2Hgsfz/tBNbDpx1/lsL8NyB1JTngIWh0HDQ6DnJRiH7fx3AQcjVGzISq6PM99PvFpu+LHBfzUw7YKoterEANBv0A/YEP33DVZWweOgRY6LhocV2ky7hkeCxiNpRopuzYsSNqa2s7X2H9AcDCJMZAgGYFmp9OQh35WKp4OjlV2U+rZglimMACgM2bO3euW7/+46KS4RlLVOJn/CB43E65PoqrlCgBFPLzzZnO/zmmOch0/ujeM5Y3quh3SpW8erY6O4UTqmtwZn09lqar4LJmLYYHa7Hp++OFPO6fyOGA5yNiMzN6HoUowpOTBdw7nkOvN8nkVUwUV8FW4ay6Biyvqi7r5BVUccDzuAMh0QzKZrO9ULkYxc4ClMRnPiveO2L1dHV1AbiRI0VUWlu2bJkE5PeMRHJYiP6/Y3+NaXDV/jSA4+M4sVqcTuOMunqcWF2DOjbKjqVi0/cC/jg+jscLeZaD0TPkogiP5vN4YCKHQd/nqsqYqLNtnFhdg7Pq6rEknYZdAcso9/kePBNxkk00w7q7O38M1X9hJJJJjDUR9884Vl97OQR/4mgRlZia2xmExAz2z7LZ7M+P9VWOOoFVbDmml8X6xjlVXnhqbR1eXluHhS4bicfyEIZiOAjw0EQOOydyOOj7MMxVJPZYGAx8PDCRw0MTOYyGAYMSk2vpAsfFy+vqcGptHRodB5VS/zsaBjjgeRxkolmybNlLvgDo9xiJ5LFt3RX3z7jj6qsLouZ9AAY4YkSlY1n4FrizQBIYNdb/OyPHzNH+weNnnrgIwIJyiVSNbWNlVTXOqDtUXshG4nGUjyLsmizg3twY9k5OwmO5WCJEquj3PdyXG8eThQIKXI0XC4fLBOtwfHU1aqzKWs06GoZ4PJ/n0xLRLOro6DBp17kIwL2MRqLkADxeDh80m80+KTAfAOBz2IhKo6ur6xEofsxIVDYFsj09nb+bidc66mzOrsmJFeU5IbOK5YW19Ti5pgYNqRSPpBg61PT9/tw4HslPYDgIwFZZlcczBnsnJ/Gn3Bj2TE7C59K7WKixbaysrsaZ9cUywVQFJvyHggCP5fNHNufh+lyiWXL99dfnoNG7AfQxGolxZyaTKZtl1Nls9lcCuYzDRlQ6qvIlcBVWJRsQjT43Uy921LOTfj8Y97V8V8eIAPNSDl5aU1ssL3QclhfG8UKGI5u+j6PPZ9P3SjAehXg0n8f9uXH0+R5LRuNwTZwqE3zZoZJrx4VUYk5HFXsnC3iikH92XzUehUSzqLu7e7fAvAXACKORgOc30c3l9pmz2c7NCnyJo0dUGj09nXdDcDMjUbFzjSu7u7uHZur1pvXzer9XGStti6sNanBWXQNWVlWjmuWFsVRcrVNs+r6rUEDesMysrB5mp3qdPTiRw8MTExgNA2YMYuDpValTZYK1FbzphWcMHi7k0eezSoSoNAmC7L0C630AJhmNivbw8pe85D/LcgKdzfwjVK7hEBKVRhT4HwOwm5GoONuy2c5vz+QLTi+BFXgV1aPIFsFC18XL6+rx0praqUbFPNriRqE4GPjYmSs2fR8MuENdrG9EmOpvNZ7D44U8JtjfKhZqrGT1BRzwi5sDjIchB5+ohLLZTb+A4nwAPBkr9TlN9JMdHR1lO77Llh33KQDf5kgSzb0tW7aMGAvvBzDOaFTM5H2X69gfnemXndbMxSjwWCEPU2ElXQKgIZXCidU1OLO2AUvSVRXZA6YS5KMITxYKuHd8HL0eeyjFiWcMer1J3Dc+XuxvpWzIH4dr29Ol03XJ2Jl10hg8kp/A7slCxd2riMpVd3fmuyr6YQDcarbi7jN6bU9X1+3l/B06OjrM2OjwhQC2cUSJ5t7mTOb3avAeMIlVEY/iIuaDN9xww/BMv/C0szOFKJpKYlVmxF1LsCSdxpl1dTixmk3f4ypQxQHv8C52XOVTOvkoerpn2QHPQ8ikQcnZImh20zijPjmbVxgFer1JPJDLYYyrrohip6er6z8EwiRWJVHcPjo68reV8FV27NgRjY0OXwKwHw9RSe4RPZk7BeZsAHsZjfIlkCuy2ew9s/Hax7S8aCwM8XA+V9HNtS0IGp0jmr4nYOVCeT47KQYDHw9OFMsLD/o+G4TPkVwU4dF8Hjsnctw1MiaqbAvLqqpwVl0DlldVwRUrAdcAYDDwn06gsryYKL6y2c7bVPSDYE+sSvDjsYbaD+zYsaNimgxOJbHWCOQWDi9RKe4R2XsC33klFLczGmVI5MvZbOesbehxzLOaiSjCA7lcIla+1NjF3jFs+h5v+SjCrskC7stNlReyhG1WkgWjYYCHJnJ4aCKH0ZA/pJf8XoFiCfTJNTU4vbYeLW46Mcn2sTDEgxM5PFkowDc834nKQU9X1/enfmU/yGiU7bPAZtvCu3dcfXWh0r7bjh07omy282KofoUjTTT3brrpusFly5a8U4B/BMASm7K5L+it3V2d/3s232NGMjC+Gjw0MYE+30vEwLDpe3kI1OCA5+He3DgeL+TZxHkGGCgO+j7uz+XwaD6PHEs2S389QvF6dNrU9WheyknMd89HER7JT+CR/ATyPBaJyk42m/2NieSNAPYwGuU1RxHgiz3ZzLpMJlPJv2Bpd3fXZyH6CQD8dYRojnV0dJhsNvMlI3ougKcYkZgT7EhZcikwu2UQM7aESKHYOzmJhyZymEzIL+Bs+l4ujx/AcBDg4fwEHpjIYSBgeeHRMgD6fQ/353LYNVmAZ5gsKLW0ZWNpugpn1NdjZVU1qhJ07cmbYr+1nRPsc0VU7jZv7twZpKzXKfBbRqMsTED0gmw205GUL9zd1XWNQC4AkOfwE5XgPtHV9UvbwqsFuIPRiCeB3DI2Mnz+XPyoMeMzntxUSeF+z0tUkoBN38tDIYqwu1DAn3Jj2Ds5yXKjF6BPr7ia2lGQ8Sq5OtvGidU1OL22DovTaaQkOcs/i/3WJrAzV+y3RkSV4aZNm/bVVqf/GipbGI1Y2yMwb+zu6vpW0r54Ntv5bWPhr8HVggRAReZslmtMvB6+VaUkM/xMJvNUNpt5i0A2AMjxKIzVfPHWpUuPW7Njx445WeFgzdKXwH5vEvdPjGMw8BPVSpdN38tDpIo+38N9uRx2FQrIc0XRM2+WWlxxde/4OHZNsq9Qya8rU2XLp9fV49TaOjQ6DhKUt8JYGOKR/MRUvzWuuEoSEYlVk29VrsCYLddee63X3d25VoC/BcATPX4zlNuh0Stna1epcrA5k/m9wPwVIL/iAZH4e9PEHL5drO47olrK5JFms50Z28IreB7G5YBA5/KlL7moo6Njzu7bs1pz4huDJwsFPJjQ7czZ9L0cnscUBwMfO3M5PDQxkfhd9J5ecTUxhj2Tkwi4pWBJpS0LS9NVOKsueWWCOlX6u3Mih0fyEywVTOo1SXU0Vh/I0mGOyuzKZjNft0RfB+AJRiMWAgG+uGzZknd2d3cP8fjM9i1betw5AvwL2Bcrwc/Lc7f5RHV19Ui8jjUp+XUgk8k83p3tfOPUaqwJHpElEULks91dmcs6Ojrm9Pick9lQ3hQb7T6Y0N3Knqvpu3BVVuzkohCPF/K4f2Ic/X6ySmAPJa7uyx1accXEVSkdKhM8Y6pM0E7QBUOhGAx8PDBR3HyBzdmTbenSpXsB+DE6Ph/jqMy+rq6u37qO/RcC+Q6jUdJJ+kNQ6zXZbKZjricocdbR0RFms5n/rQbnAdjPiCRQpA/P1Vtde+21HjROpauxuQ9qNtuZUWO/WoBf8qCc03tDvxE9r7ursyS7tM7pz/kTUYRH83k8lNDGu0c2fT/jUNN34aqsuPGMwZ7JSdybG8M+r7JXIUWqOPCMUkEmrkp3fRAscFycVlv3dJlgkjLdkSoOeB7+ND6OJwuFxGwGQi88UQSwMzbnqbH/xFGZGzfccMNwNtv5foVcCoAr3+b4kgzVq1IWXt3dvekPDMdz6+nJ3OmkrFcq9N8ZjVmVh8hnAeyNy/lhjD+n54WIxOY8tCz9U7zOwxsezmYzb4LKu6HYxdNl1v3RpKzXbO7qKlnSsCTZk9zU1ucPTORw0E/mjnBPN32vZ9P3uApV8ZRXTO48WSigUEErQXyj6J2cxL3j4+hlqWBJOSJYkq7CWfV1OL66GtW2najv7xmDXm8S9+bG0etNIuSxSM9+cAd+EZOPMjI2NngPR2SOJyfZzpuiMPVyrsaaMw8YC6/v7u76dCaTYc+3F7Bp06b+nmzXKhX9EIABRmSm6c/U2GdMrfT4QUzuSr/dsmXLyFy+oxHcGZMBCRzHuSuOR0p3d+d/+n7hdKj+M4BJnjuzMDUG/jUK/ddu2bRpVyk/SEmX/xSiCLsmC7g3N4b93iRCTd4v7mz6Xga3zqdLmnJ4tMx78eSiCE8WCrgvN44DvocITBaUSo1tY2V1Nc6sr8eSdDpxqzHzUYRdhQLumxjHAc9DVLrEFU+CuF+DNSaJC8Ftc7XDDj3Tli3XH8hmO98/lSToZURm5xFBgM+NjQ6/anMm8z8Mx9Hp6erabqLgtKmdNHlfOXYDArm4O9v1lp6eG56Yulv/MCY3pe1znjmw5TYAMbj/6M+uv/762O4AuHXr1onu7q5/MFHqpRBs5Wk0Y/6oRl7bk818bsuWLSVPDsZixhSqYr/n4U/jxR3hCgktHTnU9P3MugYsrapCmk3fY2d0aje0nbkcBny/LBJARhUD/qFG9bmpnUH5bFWa+W+xTPBltVMJa8eFIEn9rYDRMMCDEznsnMjhYODzMZ9eUHd3568AlLznhgXt5miUPklgWzhFgC8C8BiRGbo0C3bYFk7LZjP/umPHDp8hmZ7NmzcPdHd3rrVE3wCApZfT4yuwMfCdl2WznTcf+T/GxoZ/BpS2F5QABcexbpnr971p06Z9Crmj9M+x1s3lcS5ev7e7K3OJir5Zgd/ytJq2CSg+NTY6/Bc9PZ2/i8986ihtW7ngVGPMg7P9oepTKbS4LualnAQ/UQDjYYiBwMdImOzd8eLKhqDJdbDAcVEXp9IvVYxGEYaCAMNhAMODp6QcsbDAddDsuHATmJiOoBj0fRzwfPjxW2mbu2jPcD2P0nhrbW3fAMGmEs7wf96T7TyXIxEfazZsONmO9EsAVk/neZYAhfzEFvMPXV1dnODNsFWrVtn18+evs1S+oMBLGJEXZAB8S439D0+vuHque8H69VdA5brSTZz12my262OluQ9uOBeipUxi7bUtnJjJZMptRzZZt379u0TlSwDO5Kn2Ih/dBTeKmi9ks9nYrXqOZQLrSDWWjZa0iybHSdRKhWfzjeJg4KPf9xNZalkO0paFppSLJidVkj5GBopcGGEkDDEU+OwlFAM1lo1m10WTk8zSYM8YDAQ+DvqxPh6ZwCqPyaDbMK/xXgCnlOJBTmBek81m2f8qhta2t7/KUnwZircwGi/64f+XxsLnezKZ/2Y0Zvna9clPVjeMTVwJwWcANDEiz3lA/hTG+uyL2TBgzZo1VXbKfQTAshJ80mEnZZ26adOm/lKFqnV9+09Kdq1TrOnuztxYrodZR0eHtWffvveIkc9A8BqeeH92nL9vjHxu8+bOnfG9ZByluU5gHeJaFppdF4scN1Fbyj9XkmI0KK7KSuJOjuXCtSzMS6UwP5VCXSoFexaSrzqVIBgPQ4xFIUbDkCutYnJRbUg5aHHdxG7OkIsi9HmTGInCclg5ygRWmWhraztHYf0Mc93+QORr3V2df8cRiLepRNYnoLgQMWmREbdHSIX8CGKu6enquoPhmFtr1qyZb6XcKwB8XIBmRgQRFN9Vla/39HTefTR/uG79+vNE5SdzfZ6raHtPV1dXSY+j4srTPwKomeOkxn93d2f+BhXS+KGt7bI3qZq/h+Ct4AreQ4P8C6j9+e7uTXfF/ZOWTQLr8AcWLHAcNKdd1Fh2og+zfBShP/AxFCRzJ8dySmhU2TZqLQt1dgpp20JabLhHsSTHKDCpESYjg0ljMBGFyEVRKRtf07PYUuxvtTjtwpXkzZ0UwFgY4CnPQ668duxkAquMrGtr/7IAn53DK/hvxkaH3si+QOWjtfWy00Wiv1PIhwCk+RCCMRi5OUrhG1s6Ox/lEVJaUyuyWiH4FIDjExiCCYH2GJP6xvOVCr5wAqL93xSYyx8Wvt2dzXw4DgFsa9uwVqE9c/iWw9Dold3d3bsr737RehJgtUGkDcCCBJ6PAQTfFTVXZbPZ35TT3PqolDqBdaQa20aLy/LCSA+XF3qG5YXlwpJib6SUWLAFz1xZqEAIRWAMAlUmqmKsyrawyHGxyEknskww5v2tXgwmsMpp8rdqlV0/b/63BPLBWX8zxaMi5q+z2WwfI19+1qxZMz+VSq9W0Y9D8fLkRUDuESDjuva2OO8allQdHR1Wb+9TbzXA5QJ9G4BK/1X+QSi2AFG2u7t7aAbuBW7DvMZ/B/CuOfjsd4/V15674+qrC3EJZuv69q9A8fdz8Fa+ir6j0ldttre314Sqq0VxKSB/g8pfxTsEkc7Alutu2rRpX9nd3Y72D+KUwDrEtSw0Oy4WOg5SCd65r7gCIkS/72EsDLm5F9EsXjiTXiboGYN+38NBPyiL3TifBxNY5ZeYqLJt99sQvHsW3+beIGW9vRwf7Oi5EgW9b1KxLoTi/QDmV/DXfQCq221btmcymYc4+uWhtbV1hYh9iQEuEODUCvpqBwV6qwi2zsZGAatWrXIbGhp3zO69QO9yndS7brjhhuG4PYq2tm64GqIfn8X3mFTRD/V0dX0/Sedje3v7cmNwsQouqLAfPzwIblfozSYIfrhly5bJcp6HHZU4JrAOfxnBfCeFxW4atXayywvZ9J1o5tkQNLoOWtw0qhOaLM9FEfp8D8NhUCGdEJjAKtOkRKq3d99VCrlyFl7+tslCeu0tt1w7xkhXljVr1lSlUum3K/QDAN6K8m+qHQJyN9Tcbln4fldX1wMc5fJW7OUm50P1vQBOKsOvMCCQnwLYYVn6o9nesW7VqlVu/bzGqwS4AjPfy+hm28KGTCaTj2uwW9ev/zhUvgrAmeGX3g+1VpdDP6TZtH79+pcaI++F4L0AXoPyW5kVAbhLILc4jrUjhonYaamoBNaRamwbzY6LJtdNdCdPNn0nOnZpa6pM0E3mJhIGiuEgwAHfR6G8+lu9GExglbHW1vb3iuCbM7RN/UGofqa7u6uHka18q1atsufNm/c6FeudUJwD4JWIfxlXBMH9AH4lKr8MQ++OLVu2jHA0K3fyHMF6p6i+XYDXKVAd00eE36rgdlHr9mXLFv+uo6Njzn85X7d+/dtEpQfA4hl4uUEoPl0uO+61tl72V7BMBoqzZiY5INtTKbmylLstxtFll13WHETROTDWORA9F8AJsfygil0q+KkF+ZnjWP9VKUmrZx6jR6lcEliHpESw0HXR7LhwrWRvSsOm70RHp8620eKmMT/lIImbnwaqGPA99PtBJa/kZAKrzK1bt67eslKfVuBjABqn8RIjAK5zHfvrlfigRy/+OIJtv0Fg/bWo/qUCrwCwsKTTEOAJhf4BkD+Iyu8nJ91fc2VgMq1atcqdP3/+X6jK36jgDVC8EsCSEnyUgwB+p8BvIfq7lMivM5nMwTjE6MILr2yoqvEvh+onML1EVg6C6wPP+bebbrpusJyOj46OjtSeffvWispnMd3EiuBOUeufstlNv+AZ98KKpb+p/0cFfzF1z3gVgLl+nvQA3KfA7y3IPaGNO5OwWUfFJ7AOf9FieeEiJ7k9aw6JtLiaos/3UGDTd6JnsAA0Oi4Wuy6qE1qKnI8i9Ps+BoMAWvnd9JjAqhAXX3xxretWvR8iqwC86QUeJIcA/AKK//D9wve2bt06wQjSs7W1tS1Vtc4SwakKnAjBiVCciOKKv6oZeIsRCPZD8RRU9oroY4A8BkSPGWMe6enpGeco0J+zdu3aRbbtvgLQMxU4USEniOoJEKwA4B7DS/sA9gDYLdBdgOxWxUORY/12y6ZNu+Iel6lS4Q8CeKtCzwPQ8jz/fAKK/wPgNtvGjkwmM1rOx8SqVavs+fPnn2eM9WERffMLrE42AO5V4Mei1i3d3Zvu51k1fR0dHdb+/fuPD1VfKkZOhYVTVOVkQJdIcRym+6wZAngK0D0K7LEgvUZ0JyLrD6mU7pztMt04SkwC60hPlxc6biJ3DTtEAYyHxfLCCupnQzQtjggWuWk0uy5SCVxupVCMBCEO+B4mKq9M8PkwgVWZD5Kp/fv3nxSqvhRAk6WWq2oKauFgSuSRJUuWPFmKMheqHOvWrasXkRbV1CJA60UwD5baolbD07NDMSpGRgBALc3ZwKgx9phtm7Hh2tqBOO1qRpXl8ssvbwzDcBGAhcZYCwCtArRKxKo+4vicADAJYFSMXRAJJ/1U6sAJixc/VUHXR1mzYcNJqShaDNgtAJpUTShiDUYRHnUcfbSSEwBr116xTFLBKQBaLLVqp8Z9UIy917bNw+WesCsn7e3tNVEULQGcJrWiBgA1YiQtIo0AoKrDAIKpe0VeVb0ocvtXrGh+qqOjg32Ajjypj/YPKiGBdXjCamGh62ARywsPN30PfIRclUUJUmPbaHZdLEw5SGKd4KEywQHfR6CJzGIzgUVEREREVAYSXUsXqMFTnocDnof6VAotrot5KSeRsXAtwZJ0GovTLpu+U8XjjqXsiUdEREREROUlxRAUK+fGwhBjYYi0ZWOR4yR2tzELgkbHQaPjcIJLlXfBe3pThzRcK4llgsBYGKDPZ4KaiIiIiIjKbD7HEDyTZyL0ehH2e5Noclw0p13UWMlcoVFj21hpV2NZuopN36nsj+Vmx0WT6yKJxcKRKgYDHwc8H77yHCYiIiIiovLDBNafYQAcDHwcDPzEN323p1atLHRdjLHpO5UJEaDBdtDiJnfn0UljMOD7GAg8rqIkIiIiIqKyxgTWi5CPIuyKCtjneVjgOmh2XbiSzKbvDakUGlKpqcbP/lTjZ67ooBhd1ETQ5LhYnE7meXpod9E+38doGPCAICIiIiKiypjrMQQvXqAGBzwPfWz6DkeKTd+PS7sYYdN3ioEqy8Ii18UiJ53IlZIRFMN+gAO+h0mW+hIRERERUYVhAmsa2PT9MDmi6XthqlzpIMuVaM6OPyQ+meyZCANBgIO+j1B54hERERERUWViAmsGJo9s+l5UbVlYXlWFl1SluRKEZpUNQaPrYLGbRpWVzHLeMZYJzhQGkIiIiIioDDCBNUPY9P0wG4ebvuei4iSbTd9pJhxa8bjQdZFK4IpHo4qhgMnhmSVPMAZERERERPHHBNYsYNP3w+rsFOqqi03fB30f/YEPnxNvOurjyEaLm8b8lIME5q3gGYOBoLhpQsQywRmlqncyCkRERERE8ccE1ixi0/fDHBEsTqfRknYxHITo9z3koogHCf1ZlgALHBctCS4TzEUR+nyPKxhn8TJtpfSbDAMRERERUfwxgTUH2PT9MIGgyXHQ5DiYNAb9frHs0nBVCU1xpLibYLPrIJXAlYsGiuEgwAHfR4FJ3tm+OH/xwidHdjMQRERERETxxwTWHGPT98OqntX0vS/ghD3JqmwLixwXi5x0InvHBaoY8D30+wFCZZnt7NM73L0j/8o4EBERERGVByawSoRN3w97rqbvI0EIZc1UItTZNo5LpxNbXpuPIvT7PgaDgMf83Pm1V516/0UAM+ZERERERGXiqBNYoWXyFhcHzPgEdldUQK83iYWuy6bv1SkEVWz6XskOlZIudl1U28lbgahQjAQhDvgeJrjqcK7dCVfe2/rwwXGGgoiIiIionOaRRz3xgtyyvHEUQD3DN3uj0mgX+2Q1pJK9SE6hU03ffeSikMdGmUuJYJGTRnPahZPAHnDFMkEf/b6HkH3fSnA9QSa/aPijG+5BwGgQEREREZWXac0gb1nR1KOqaxm+2Zf0pu9HOtz03YPh3L/MjmMLzW5y+1vlowj9gY8h3wfXE5bEOKBXXrRn5EaGgoiIiIioPE1rKvmtZfNODMW6H0AVQzg3LCDxTd8PiVRxMPDR7/vwWF4Ya3W2jRY3jfkpB0nLvxZ3Hw3Q5/sYC7l6sIR+ZcRcesnu0ScZCiIiIiKi8jXtKeXNy+dfCsgWhnDuJb3p+5EJgvGw2PR9NGRFUJwuKg0pB0vSadQmsL9VpIrBwMcBz4fP3QRLKacqX3h879A3OsCFb0RERERElTDXnLablzV9CaKfZxhLIyWS+KbvhxwqLxz0fUTcya0kDu0m2eK6cC0rkcfggO9jgCWucbADkXzqon1DvQwFEREREVFlOOb1OzevaPo0VL86E69F0x/E+lQKLa6LeSkn0bGIoBj2A/QFPgrc3W1OpCwLzU4xcZW0Pm1cBRg7OxXyiYv3DP2MoSAiIiIiqiwzMtu8eXnTBwHNApjHkJZW1VSz7AUOm77nomJiYTgMwEVZM8+1LLQktDF7pIqDfoD+wGMftnjYryJfSO8e2rwaYOaaiIiIiKgCzdi086YV8463YN0KxWsY1tJj0/fDfHO46XvInkTHrNq20eK6WJhykLTO7J6JMBAEOOj7CJVZ0RgYE9GvRpPpqy/p65tgOIiIiIiIKteMzj47Xw2nbqDxUwr8I4Aahjce2PS9yCgwGPoY8HzkDRdpHK1a28Zx6SrMT6US991zUYQ+38NIGIB5q1gYFZWNjobfWN07NsRwEBERERFVvllJZ9y0Yt7xlrGug+BtDHF8OGJhgeug2Ulmk+0j5cIQfYGPkSBgdeELqJtKXM1LWOLKABgOfBzw2U8tRoYFeo1v4Zq1u0ZGGA4iIiIiouSY1fU4W1c0vkMU/wbg5Qx1vAadTd+LPGPQ5/s4yJ3j/i81lo3j0mk0Osk6RgJVDPge+nwfEZdbxeWq1Q/VjUjLtRc9NjTGeBARERERJXBWMNtvsB2w/eVN6wD9IoDjGPJ4SVs2FjkOFrouUglu+h6pYsD30R948BOeyaq1bSxJ4IqrfBSh3/dxMPTZ9D8+noDi667Wbl7d21tgOIiIiIiIkmvOMhYbT0J6gd90qUK/AGAJQx8vbPpepFCMBCEO+B4mElY2VkxcpRO1Ks9AMRqE6PM95FgmGKcT8U8qetXSPSPbzgZCBoSIiIiIiOZ8yc32pUurA8lfpqJ/D2AxhyB+2PS9KBeGOBD4GK3wPll1qRSOc9OJWnEVqGLQ99HnewhYJhinW9J/QfFvF+0d+iljQUREREREz5gtlOqNt58G1xuf/2GB/B2A0zkU8cOm70Weiab6ZPkV0ydLAMxPOVicTqPWTs6Ku0NlgoNBAGWdYFwEAL4LS666aNfQbxgOIiIiIiL6c/PYktu2vPENBvgMgHfE5TPRMw+S+lQKixwX81MOktoqK1SDft/HgB8gUFOW38GGYIHrosV1kE5IqeihslCWCcbOGCBb7BBfO3//0F6Gg4iIiIiInk+sUhHbljaeGVn4iAAXA6jm8MQPm74DRoHB0MeA7yNfJgmRGstGs+uiyXFgJWTcQmNwMAjQH/jwjeHJGx9PCJBxUti0+onhUYaDiIiIiIhejFjOZLcd39wSReHlAv0IgIUcpjgeOIL5Tgotbhp1dnKbvk9EEQYCH0NBABOzXkqOWGh0HCxwnGSVCZpimeBQBZV8VshV4x6F2ZjeM3LLaoBL4YiIiIiI6OhmFHH+cBtPQrrRn/8hgXwWwMs4XPHEpu/FVVkjYYDBIMBYGJasv1JKBPNSDpocB/NsG0mp91QAY2GAPt/HWMhN6+J0agD4kSXyLxfsHrqb4SAiIiIioukqi9ltB2CdvGz+u4wlnxTFGzls8ZQSwQLHRbPrIp3gpu+hKsbCEKNRiNEgQDiLK7NEgGrLRkMqhfkpB7WWnageZRGKuwke8FkmGDMjALrsUK5lfysiIiIiIpqR+W+5feBtKxecaoxeDmgbgBoOYTwPKjZ9P6xgDCbCEBNRhIkowqRG0yptEwFcsVBl2ai1bdTZNmpTNuwE7nvgmQj9foCBwGOZYLw8KUCnb2nn2l0jIwwHERERERHNlLKd+W4/oXGeF+oagXwCwEoOZTylLQuLHBcLXQcpsRiQKb4x8NQgMIpQFZEqoiPKDgWADQuOBaTEgiuCtG3BSvgmnWNhiD7fx2gY8CCK163kHoXZuHTPyLazAdZwEhERERHRzM86yv0LbAdsb9n8d1liXanQsyvhO1Xmgcam7zQ9RhVDQYA+30OBZYJxEgK4zRjrqkt6B/+H4SAiIiIiotlUUcmeG1+y8KW2bT4C6DoAdRzeeKqzbSx0p5q+Mxz0Z/hq0Od5OBgEiJR1gjEyCsiNYpurLnxyZDfDQUREREREc6EiVyvdfFJTg/j4sEI/Ae5eGFts+k7PJW8i9Hs+BoOgZLs50nPcLEQfMYrr82FN14b9+/OMCBERERERzemcpJK/XAdgnbx8wTkK0w7g/QBYuxbTg5BN35NNAYyFAfp8H2MhWyjFiAH05xZk4/l7hn8gYEaRiIiIiIhKIzGpgq1LG06CZbcJ0A6gkUMfT2z6niwGiuEgwAGP/a1iZkyBb9mWdfUFuwYfYjiIiIiIiKjUErfWpfuUhfVVBXO+Qq8EcDoPgbgemGz6XslCVfT7Hvp9HyH7W8XJYwJkfUs71+4aGWE4iIiIiIgoPnmChFJAblnW9GaIfgTAO8DywtiqtW00uy4a2fS97BWiCAd8H0PsbxWvy6HgJxrJNRf1Dv2EZYJERERERBRH7DYE4NZlC5eEYtoheoUoFjEi8XSo6XtL2oXL8sKykosiPOV5GA0DBiNGw6LANhuy8YI9Qw8wHEREREREFGdMYB1h+2lwg/Gm9xSbvst5jEh8D9qGlIMW10VDKsWAxJRCMRQEOOD7KEQRAxIfTwrQ6Zioa3Xv2BDDQURERERE5ZILoOewdcW8V0GtDQJcCKCWEYmnKttCs+NioePC4vaFsRAag4NBgP7Ag29YjRYjdwnkmiV7hr5zNsCtHomIiIiIqKxwxv8Ctp/QOC8I5UMK/TiAlzMi8VQsL3TQ7LpIW2xnVgqeMTjgexgMfDBvFQ8KeAJstwy+dkHv8L2MCBERERERlSsmsF78RFC2LV9wbrG8EO8DwNq1mB7Q9akUFjku5qcccFHW7MubCP2ej4Ohz/bf8fGUQjJ2GHzzgv3jBxkOIiIiIiKqhPk+HSU2fS8PacvCIsfFIteFzUzWjGNj9lhe0u9RmI35RSO3brgHHBgiIiIiIqqc2Q5DMH1s+l4eLABNjosW10W1zfLCY6EAxsIA+z0PE2zMHhc+gO9ZIldfsHvoboaDiIiIiIgqERNYM4RN38tDnZ1Ci+uiMZUC6wtfvEOJq32THvKGiauYjEqfQrZIJN+8aN9QL+NBRERERESVjDP4Gcam7+XBEcEi10WLm2Z54fNQACNBgP3eJArGMCDx8HuBdDqmZuvq3t4Cw0FEREREREnAmfvsTfzZ9L0M2BAsSjtodtJwLYsBOXT8KjAcFhNXk0xcxYEB8COBdc2FewbvYDiIiIiIiChpmMCaA2z6Xh4nQkPKwXHpNOoS3Cfr0IqrfUxcxcUoIDealH79kieG9zAcRERERESU5Hk7zRE2fS8PNbaNFtfFgpSTmD5ZTFzFzsMKvSEf1nRt2L8/z3AQEREREVHSMYFVImz6Hn+uZaHFdbHQdWFX6KlioBgKQhxg4ioewwH9uQXZeP6e4R9IMa9IREREREREYAKr5Nj0Pf5sCBa6DlrcyumTFarioO+jz/cQKPMkJTYGyBYj0Tcu2T36JMNBRERERET0f2MCKyY6AOvk5QvOYdP3OJ8sgibHQUvaRY1Vnn2yJo3BgO/joO8j4gKfUh9RjyrMdemC0716YCDHeBARERERET3fnJxi58alC15iWbqeTd/jqyGVwiLXxfxUChLz00ihGAlDDHg+xqKQg1fq4YD+F8sEiYiIiIiIjg4TWDHGpu/x54hgoZPGQtdBOmblhRNRhKEgwGDgI2SZYKnlFNgmkGsu2jO0k+EgIiIiIiI6OkxglQk2fY+/OttGo+OgyXHhlGj3wnwUYSQMMRT6mIzYlD0GnhAg45ioa3Xv2BDDQUREREREND1MYJUZNn0vD7V2CvNSxf9qLBuzlc8KVJGLQowGAUbDkA3Z4+MugVyzZM/Qd84GWLdJRERERER0jJjAKlMdbPpeNiwR1Ng26mwbtbaNKrGQtmxYR3n2+WowGRkUTIR8ZJCLQniGq6ziQgFPgO2Wwdcu6B2+lxEhIiIiIiKaOUxgVQA2fS9PrmXBEYEtgpQIrCOWaYkCARShMQih8I2B4eKquHpKIRk7DL55wf7xgwwHERERERHRzGMCq4JsXrmyKmVGVovIFVC8hhEhmlW/Vsg1S/cM3cYyQSIiIiIiotnFBFaFYtN3olnhA/ieinzj4t1Dv2Y4iIiIiIiI5gYTWBWOTd+JZuRS2a/QzRLJNy/aN9TLeBAREREREc3xrIwhSAYFZNvyBeey6TvRUZ03f7AgmxxTs3V1b2+BESEiIiIiIioNJrAS6NZlC5eEYtoFuBzQZkaE6BkMgB8JrGsu3DN4B8NBRERERERUekxgJdj20+AG403vKa7KkvMYEUq4UUBuFNtcdeGTI7sZDiIiIiIiovhgAosAADetWPAyS/UyQFvBpu+UpIug6CNGcb166ewlfX0TjAgREREREVEM524MAR3p5pOaGsTHhxX6MQCnMSJUoQygP7cgG8/fM/wDAZQhISIiIiIiii8msOjP2ra88Q0G+BjY9J0qx7gCt6pY37hk9+CDDAcREREREVF5YAKLXtCtyxYuMRJdrMBHASxlRKjcKPC4BXQBJnPhntFhRoSIiIiIiKi8MIFFLxqbvlMZuksg1zh7hm5bDUQMBxERERERUXliAoumZdvKBacao5cDug5AHSNCcaGAJ8B2GHz1ot7h+xgRIiIiIiKi8scEFh2TI5q+XwngdEaESugphWRMFFx76b7xQYaDiIiIiIiocjCBRTPmiKbv7wXgMCI0R5exexRm49I9I9vOBkLGg4iIiIiIqAJnfgwBzbStKxYeZ2l0CZu+0yzyAXwPllx10a6h3zAcRERERERElY0JLJo1z2r6fi6PNzp22qeQLcZY117aO7iP8SAiIiIiIkoGJhRoTrDpOx2j3wuk07cablq7a9ckw0FERERERJQsTGDRnNp+QuM8P9RLALkcwMsYEXoeEYDbLJGrL9g9dDfDQURERERElFxMYFHJ3LJ83qsV1scBfBhs+k6H5RTYZiL765fuO/gIw0FERERERERMYFHJbV65aLFrwksV+AiAZYxIYh1QSGfahBtX944NMRxERERERER0CBNYFBvbATtc3vh2A/0Ym74nhwJ/APQb+UUjt264BwEjQkRERERERM/GBAHF0tbjF56CKForQDuARkak4hhAf25BNl6wZ/g/GQ4iIiIiIiJ6PkxgUazdfFJTAwK9GIorALycESl7eRXcaEXR1Rf2jj3KcBAREREREdGLwQQWlY1tyxvfYICPAXgfgBQjUlaXmn4FbrDD4JsX7B8/yHgQERERERHRUc0qGQIqN7cuW7gkFNMu0I8AWMiIxJcK7rVUrnNMzdbVvb0FRoSIiIiIiIimgwksKlsbT0J6gd/0boV+EsBrGZFYucsCvnL+nuEfCKAMBxERERERER0LJrCoImxd0fQ6QK8UxQcAOIxISfhQvdkS66oL9gw9wHAQERERERHRTGECiyrKtuObWzQK1ijwEQDLGJE5kQOkxw7xtfP3D+1lOIiIiIiIiGimMYFFFWn7aXCD8ab3KEw7IOcxIrPioEKuS5tw4+resSGGg4iIiIiIiGYLE1hU8W5dMf+VocplAlwEoIYROWa7FPqNfFjTtWH//jzDQURERERERLONCSxKjG1L6heaVKoNisshWM6IHOXFQvQRKP55yZ6RW88GQkaEiIiIiIiI5mxOyhBQ0mwH7GDF/PeoyqcAvJ4ReUEPA/hnd8/wrauBiOEgIiIiIiKiucYEFiXa1hXzXiVqfQLAh8HdC5/tCYF8ZcmeoR6uuCIiIiIiIqJSYgKLCMBNJzQulwBXimA9gHkJD8dDEHzpsd3D3+oADI8OIiIiIiIiKjUmsIiOsH3RorqgOrpAoZ8CcErCvv4TAvmKs2eom6WCREREREREFCdMYBE9h+2A7a1oeq+ofhIV3idLBfcK8BV39/C3mbgiIiIiIiKiOGICi+gF3LR0wWssy3wKwAcA2BX01e6E4KsX7h7+sQDKkSYiIiIiIqK4YgKL6EW6acW84y21PglgHYDaMv0aPgT/AWNdfdHewd9yVImIiIiIiKgcMIFFdJS2L21o8i17A4B2ACvL5GPvApAxTtB9yeO5fo4iERERERERlRMmsIimqQOwTl7R+FajuEyAtyN+5YV5KL4LCzc/tnv4Jx3cUZCIiIiIiIjKFBNYRDNg2/HNLZEJVonifACvLeG5NQnFnSJ6q1NwvrN6YCDH0SEiIiIiIqJyxwQW0Qy75fj5KxDK21XwdgDnAKiZ5bfcC+DHovrDyE/fcUlf3wRHgYiIiIiIiCoJE1hEs2jzypVVbjTyV8aS14iR1wL6agiWH8NLjkDxkAC/Uwt324H86vz9Q3sZaSIiIiIiIqpkTGARzbHOJUtqatL5kyWyTlbRxaLaBFiNCq151sk5KCoDKjogovsMUg9dvPvgU4wgEREREREREREREREREREREREREREREREREREREREREREREREREREREREREREREREREREREREREREREREREREREREREREREREREREREREREREREREREREREREREREREREREREREREREREREREREREREREREREREREREREREREREVWs/x8ONb8mFRf9qAAAACV0RVh0ZGF0ZTpjcmVhdGUAMjAyMy0wMS0xN1QxODo0MjowNiswMDowMIip3EIAAAAldEVYdGRhdGU6bW9kaWZ5ADIwMjMtMDEtMTdUMTg6NDI6MDYrMDA6MDD59GT+AAAAAElFTkSuQmCC;" vertex="1" parent="1">
          <mxGeometry x="1650" y="742.5" width="149.62" height="50" as="geometry" />
        </mxCell>
      </root>
    </mxGraphModel>
  </diagram>
</mxfile>
